<svg xmlns="http://www.w3.org/2000/svg" width="124.3" height="124.3" viewBox="0 0 124.3 124.3"><path d="M593.9,501.6A60,60,0,0,1,604.6,536a60.7,60.7,0,0,1-95.2,49.8" transform="translate(-481.9 -473.9)" style="fill:none;stroke:#303841;stroke-miterlimit:10;stroke-width:3px"/><path d="M492,567.2a60.7,60.7,0,0,1,83.7-82.9" transform="translate(-481.9 -473.9)" style="fill:none;stroke:#303841;stroke-miterlimit:10;stroke-width:3px"/><path d="M542.4,522.8l-5.7-11.1-5-9.5-1.9-.7a8.5,8.5,0,0,0-2.3-.3h-1.2a7.2,7.2,0,0,0-2.6.8l-5.2,9.8-11.1,21h7.1l7.8-14.9,5.2-9.9,5.2,10,4.9,9.2Z" transform="translate(-481.9 -473.9)" style="fill:#303841"/><rect x="73.2" y="69.8" width="5.9" height="22.29" style="fill:#303841"/><path d="M557.4,539.4h16.7l1.2,1V566h5.1V538.9a8.8,8.8,0,0,0-4.3-4.6H562.5Z" transform="translate(-481.9 -473.9)" style="fill:#303841"/><path d="M536.5,559.3V566h5.1V554.2l-4.7,4.7Z" transform="translate(-481.9 -473.9)" style="fill:#303841"/><line x1="8.7" y1="112.7" x2="49.7" y2="71.7" style="fill:none;stroke:#303841;stroke-miterlimit:10;stroke-width:3px"/><line x1="69.8" y1="52.3" x2="115.3" y2="6.7" style="fill:none;stroke:#303841;stroke-miterlimit:10;stroke-width:3px"/></svg>