<svg xmlns="http://www.w3.org/2000/svg" viewBox="0 0 110.8598 188.33887"><defs><style>.cls-1{isolation:isolate;}.cls-2{mix-blend-mode:multiply;}.cls-3,.cls-86{fill:#fff;}.cls-3{opacity:0;}.cls-4{fill:#fefefe;opacity:0.01235;}.cls-5{fill:#fdfdfd;opacity:0.02469;}.cls-6{fill:#fcfcfc;opacity:0.03704;}.cls-7{fill:#fbfbfb;opacity:0.04938;}.cls-8{fill:#fafafa;opacity:0.06173;}.cls-9{fill:#f8f9f9;opacity:0.07407;}.cls-10{fill:#f7f8f8;opacity:0.08642;}.cls-11{fill:#f6f7f7;opacity:0.09876;}.cls-12{fill:#f5f5f6;opacity:0.11111;}.cls-13{fill:#f4f4f5;opacity:0.12346;}.cls-14{fill:#f3f3f4;opacity:0.1358;}.cls-15{fill:#f2f2f3;opacity:0.14815;}.cls-16{fill:#f1f1f2;opacity:0.16049;}.cls-17{fill:#f0f0f1;opacity:0.17284;}.cls-18{fill:#efeff0;opacity:0.18518;}.cls-19{fill:#eeeeef;opacity:0.19753;}.cls-20{fill:#ededee;opacity:0.20988;}.cls-21{fill:#ebeced;opacity:0.22222;}.cls-22{fill:#eaebec;opacity:0.23457;}.cls-23{fill:#e9eaeb;opacity:0.24691;}.cls-24{fill:#e8e9e9;opacity:0.25926;}.cls-25{fill:#e7e8e8;opacity:0.2716;}.cls-26{fill:#e6e7e7;opacity:0.28395;}.cls-27{fill:#e5e6e6;opacity:0.2963;}.cls-28{fill:#e4e4e5;opacity:0.30864;}.cls-29{fill:#e3e3e4;opacity:0.32099;}.cls-30{fill:#e2e2e3;opacity:0.33333;}.cls-31{fill:#e1e1e2;opacity:0.34568;}.cls-32{fill:#dfe0e1;opacity:0.35802;}.cls-33{fill:#dedfe0;opacity:0.37037;}.cls-34{fill:#dddedf;opacity:0.38272;}.cls-35{fill:#dcddde;opacity:0.39506;}.cls-36{fill:#dbdcdd;opacity:0.40741;}.cls-37{fill:#dadbdc;opacity:0.41975;}.cls-38{fill:#d9dadb;opacity:0.4321;}.cls-39{fill:#d8d9da;opacity:0.44444;}.cls-40{fill:#d7d8d9;opacity:0.45679;}.cls-41{fill:#d6d7d8;opacity:0.46914;}.cls-42{fill:#d5d6d7;opacity:0.48148;}.cls-43{fill:#d4d5d6;opacity:0.49383;}.cls-44{fill:#d2d3d5;opacity:0.50617;}.cls-45{fill:#d1d2d4;opacity:0.51852;}.cls-46{fill:#d0d1d3;opacity:0.53086;}.cls-47{fill:#cfd0d2;opacity:0.54321;}.cls-48{fill:#cecfd1;opacity:0.55556;}.cls-49{fill:#cdced0;opacity:0.5679;}.cls-50{fill:#cccdcf;opacity:0.58025;}.cls-51{fill:#cbccce;opacity:0.59259;}.cls-52{fill:#cacbcd;opacity:0.60494;}.cls-53{fill:#c9cacc;opacity:0.61728;}.cls-54{fill:#c8c9cb;opacity:0.62963;}.cls-55{fill:#c7c8ca;opacity:0.64197;}.cls-56{fill:#c5c7c9;opacity:0.65432;}.cls-57{fill:#c4c6c8;opacity:0.66667;}.cls-58{fill:#c3c5c7;opacity:0.67901;}.cls-59{fill:#c2c4c6;opacity:0.69136;}.cls-60{fill:#c1c2c5;opacity:0.7037;}.cls-61{fill:#c0c1c4;opacity:0.71605;}.cls-62{fill:#bfc0c3;opacity:0.7284;}.cls-63{fill:#bebfc2;opacity:0.74074;}.cls-64{fill:#bdbec0;opacity:0.75309;}.cls-65{fill:#bcbdbf;opacity:0.76543;}.cls-66{fill:#bbbcbe;opacity:0.77778;}.cls-67{fill:#b9bbbd;opacity:0.79012;}.cls-68{fill:#b8babc;opacity:0.80247;}.cls-69{fill:#b7b9bb;opacity:0.81481;}.cls-70{fill:#b6b8ba;opacity:0.82716;}.cls-71{fill:#b5b7b9;opacity:0.83951;}.cls-72{fill:#b4b6b8;opacity:0.85185;}.cls-73{fill:#b3b5b7;opacity:0.8642;}.cls-74{fill:#b2b4b6;opacity:0.87654;}.cls-75{fill:#b1b3b5;opacity:0.88889;}.cls-76{fill:#b0b1b4;opacity:0.90124;}.cls-77{fill:#afb0b3;opacity:0.91358;}.cls-78{fill:#aeafb2;opacity:0.92593;}.cls-79{fill:#acaeb1;opacity:0.93827;}.cls-80{fill:#abadb0;opacity:0.95062;}.cls-81{fill:#aaacaf;opacity:0.96296;}.cls-82{fill:#a9abae;opacity:0.97531;}.cls-83{fill:#a8aaad;opacity:0.98765;}.cls-84{fill:#a7a9ac;}.cls-85{fill:#595f72;}</style></defs><g class="cls-1"><g id="Layer_1" data-name="Layer 1"><g class="cls-2"><path class="cls-3" d="M425.869,575.095a55.33914,55.33914,0,0,0,94.4709-38.9657H409.6601A55.16962,55.16962,0,0,0,425.869,575.095Z" transform="translate(-409.5701 -402.96541)"/><path class="cls-4" d="M425.869,574.2292a55.33914,55.33914,0,0,0,94.4709-38.9657H409.6601A55.16962,55.16962,0,0,0,425.869,574.2292Z" transform="translate(-409.5701 -402.96541)"/><path class="cls-5" d="M425.869,573.3634a55.33914,55.33914,0,0,0,94.4709-38.9657H409.6601A55.16962,55.16962,0,0,0,425.869,573.3634Z" transform="translate(-409.5701 -402.96541)"/><path class="cls-6" d="M425.869,572.4976a55.33914,55.33914,0,0,0,94.4709-38.9657H409.6601A55.16962,55.16962,0,0,0,425.869,572.4976Z" transform="translate(-409.5701 -402.96541)"/><path class="cls-7" d="M425.869,571.6318a55.33914,55.33914,0,0,0,94.4709-38.9657H409.6601A55.16962,55.16962,0,0,0,425.869,571.6318Z" transform="translate(-409.5701 -402.96541)"/><path class="cls-8" d="M425.869,570.766a55.33914,55.33914,0,0,0,94.4709-38.9657H409.6601A55.16962,55.16962,0,0,0,425.869,570.766Z" transform="translate(-409.5701 -402.96541)"/><path class="cls-9" d="M425.869,569.9002a55.33914,55.33914,0,0,0,94.4709-38.9657H409.6601A55.16962,55.16962,0,0,0,425.869,569.9002Z" transform="translate(-409.5701 -402.96541)"/><path class="cls-10" d="M425.869,569.0344a55.33914,55.33914,0,0,0,94.4709-38.9657H409.6601A55.16962,55.16962,0,0,0,425.869,569.0344Z" transform="translate(-409.5701 -402.96541)"/><path class="cls-11" d="M425.869,568.1686a55.33914,55.33914,0,0,0,94.4709-38.9657H409.6601A55.16962,55.16962,0,0,0,425.869,568.1686Z" transform="translate(-409.5701 -402.96541)"/><path class="cls-12" d="M425.869,567.3028a55.33909,55.33909,0,0,0,94.4709-38.9657H409.6601A55.16962,55.16962,0,0,0,425.869,567.3028Z" transform="translate(-409.5701 -402.96541)"/><path class="cls-13" d="M425.869,566.437a55.33909,55.33909,0,0,0,94.4709-38.9657H409.6601A55.16962,55.16962,0,0,0,425.869,566.437Z" transform="translate(-409.5701 -402.96541)"/><path class="cls-14" d="M425.869,565.5713a55.33914,55.33914,0,0,0,94.4709-38.9658H409.6601A55.16968,55.16968,0,0,0,425.869,565.5713Z" transform="translate(-409.5701 -402.96541)"/><path class="cls-15" d="M425.869,564.7055a55.33914,55.33914,0,0,0,94.4709-38.9658H409.6601A55.16968,55.16968,0,0,0,425.869,564.7055Z" transform="translate(-409.5701 -402.96541)"/><path class="cls-16" d="M425.869,563.8397a55.33914,55.33914,0,0,0,94.4709-38.9657H409.6601A55.16962,55.16962,0,0,0,425.869,563.8397Z" transform="translate(-409.5701 -402.96541)"/><path class="cls-17" d="M425.869,562.9739a55.33914,55.33914,0,0,0,94.4709-38.9657H409.6601A55.16962,55.16962,0,0,0,425.869,562.9739Z" transform="translate(-409.5701 -402.96541)"/><path class="cls-18" d="M425.869,562.1081a55.33914,55.33914,0,0,0,94.4709-38.9657H409.6601A55.16962,55.16962,0,0,0,425.869,562.1081Z" transform="translate(-409.5701 -402.96541)"/><path class="cls-19" d="M425.869,561.2423a55.33914,55.33914,0,0,0,94.4709-38.9657H409.6601A55.16962,55.16962,0,0,0,425.869,561.2423Z" transform="translate(-409.5701 -402.96541)"/><path class="cls-20" d="M425.869,560.3765a55.33914,55.33914,0,0,0,94.4709-38.9657H409.6601A55.16962,55.16962,0,0,0,425.869,560.3765Z" transform="translate(-409.5701 -402.96541)"/><path class="cls-21" d="M425.869,559.5107a55.33914,55.33914,0,0,0,94.4709-38.9657H409.6601A55.16962,55.16962,0,0,0,425.869,559.5107Z" transform="translate(-409.5701 -402.96541)"/><path class="cls-22" d="M425.869,558.6449a55.33914,55.33914,0,0,0,94.4709-38.9657H409.6601A55.16962,55.16962,0,0,0,425.869,558.6449Z" transform="translate(-409.5701 -402.96541)"/><path class="cls-23" d="M425.869,557.7791a55.33914,55.33914,0,0,0,94.4709-38.9657H409.6601A55.16962,55.16962,0,0,0,425.869,557.7791Z" transform="translate(-409.5701 -402.96541)"/><path class="cls-24" d="M425.869,556.9133a55.33909,55.33909,0,0,0,94.4709-38.9657H409.6601A55.16962,55.16962,0,0,0,425.869,556.9133Z" transform="translate(-409.5701 -402.96541)"/><path class="cls-25" d="M425.869,556.0475a55.33909,55.33909,0,0,0,94.4709-38.9657H409.6601A55.16962,55.16962,0,0,0,425.869,556.0475Z" transform="translate(-409.5701 -402.96541)"/><path class="cls-26" d="M425.869,555.1817a55.33909,55.33909,0,0,0,94.4709-38.9657H409.6601A55.16962,55.16962,0,0,0,425.869,555.1817Z" transform="translate(-409.5701 -402.96541)"/><path class="cls-27" d="M425.869,554.316a55.33914,55.33914,0,0,0,94.4709-38.9658H409.6601A55.16968,55.16968,0,0,0,425.869,554.316Z" transform="translate(-409.5701 -402.96541)"/><path class="cls-28" d="M425.869,553.4502a55.33914,55.33914,0,0,0,94.4709-38.9658H409.6601A55.16968,55.16968,0,0,0,425.869,553.4502Z" transform="translate(-409.5701 -402.96541)"/><path class="cls-29" d="M425.869,552.5844a55.33914,55.33914,0,0,0,94.4709-38.9658H409.6601A55.16968,55.16968,0,0,0,425.869,552.5844Z" transform="translate(-409.5701 -402.96541)"/><path class="cls-30" d="M425.869,551.7186a55.33914,55.33914,0,0,0,94.4709-38.9658H409.6601A55.16968,55.16968,0,0,0,425.869,551.7186Z" transform="translate(-409.5701 -402.96541)"/><path class="cls-31" d="M425.869,550.8528a55.33914,55.33914,0,0,0,94.4709-38.9658H409.6601A55.16968,55.16968,0,0,0,425.869,550.8528Z" transform="translate(-409.5701 -402.96541)"/><path class="cls-32" d="M425.869,549.987a55.33914,55.33914,0,0,0,94.4709-38.9657H409.6601A55.16962,55.16962,0,0,0,425.869,549.987Z" transform="translate(-409.5701 -402.96541)"/><path class="cls-33" d="M425.869,549.1212a55.33914,55.33914,0,0,0,94.4709-38.9657H409.6601A55.16962,55.16962,0,0,0,425.869,549.1212Z" transform="translate(-409.5701 -402.96541)"/><path class="cls-34" d="M425.869,548.2554a55.33914,55.33914,0,0,0,94.4709-38.9657H409.6601A55.16962,55.16962,0,0,0,425.869,548.2554Z" transform="translate(-409.5701 -402.96541)"/><path class="cls-35" d="M425.869,547.3896a55.33914,55.33914,0,0,0,94.4709-38.9657H409.6601A55.16962,55.16962,0,0,0,425.869,547.3896Z" transform="translate(-409.5701 -402.96541)"/><path class="cls-36" d="M425.869,546.5238a55.33909,55.33909,0,0,0,94.4709-38.9657H409.6601A55.16962,55.16962,0,0,0,425.869,546.5238Z" transform="translate(-409.5701 -402.96541)"/><path class="cls-37" d="M425.869,545.658a55.33909,55.33909,0,0,0,94.4709-38.9657H409.6601A55.16962,55.16962,0,0,0,425.869,545.658Z" transform="translate(-409.5701 -402.96541)"/><path class="cls-38" d="M425.869,544.7922a55.33909,55.33909,0,0,0,94.4709-38.9657H409.6601A55.16962,55.16962,0,0,0,425.869,544.7922Z" transform="translate(-409.5701 -402.96541)"/><path class="cls-39" d="M425.869,543.9264a55.33909,55.33909,0,0,0,94.4709-38.9657H409.6601A55.16962,55.16962,0,0,0,425.869,543.9264Z" transform="translate(-409.5701 -402.96541)"/><path class="cls-40" d="M425.869,543.0606a55.33909,55.33909,0,0,0,94.4709-38.9657H409.6601A55.16962,55.16962,0,0,0,425.869,543.0606Z" transform="translate(-409.5701 -402.96541)"/><path class="cls-41" d="M425.869,542.1949a55.33914,55.33914,0,0,0,94.4709-38.9658H409.6601A55.16968,55.16968,0,0,0,425.869,542.1949Z" transform="translate(-409.5701 -402.96541)"/><path class="cls-42" d="M425.869,541.3291a55.33914,55.33914,0,0,0,94.4709-38.9658H409.6601A55.16968,55.16968,0,0,0,425.869,541.3291Z" transform="translate(-409.5701 -402.96541)"/><path class="cls-43" d="M425.869,540.4633a55.33914,55.33914,0,0,0,94.4709-38.9658H409.6601A55.16968,55.16968,0,0,0,425.869,540.4633Z" transform="translate(-409.5701 -402.96541)"/><path class="cls-44" d="M425.869,539.5975a55.33914,55.33914,0,0,0,94.4709-38.9658H409.6601A55.16968,55.16968,0,0,0,425.869,539.5975Z" transform="translate(-409.5701 -402.96541)"/><path class="cls-45" d="M425.869,538.7317a55.33914,55.33914,0,0,0,94.4709-38.9658H409.6601A55.16968,55.16968,0,0,0,425.869,538.7317Z" transform="translate(-409.5701 -402.96541)"/><path class="cls-46" d="M425.869,537.8659a55.33914,55.33914,0,0,0,94.4709-38.9658H409.6601A55.16968,55.16968,0,0,0,425.869,537.8659Z" transform="translate(-409.5701 -402.96541)"/><path class="cls-47" d="M425.869,537.0001a55.33909,55.33909,0,0,0,94.4709-38.9658H409.6601A55.16968,55.16968,0,0,0,425.869,537.0001Z" transform="translate(-409.5701 -402.96541)"/><path class="cls-48" d="M425.869,536.1343a55.33909,55.33909,0,0,0,94.4709-38.9657H409.6601A55.16962,55.16962,0,0,0,425.869,536.1343Z" transform="translate(-409.5701 -402.96541)"/><path class="cls-49" d="M425.869,535.2685a55.33909,55.33909,0,0,0,94.4709-38.9657H409.6601A55.16962,55.16962,0,0,0,425.869,535.2685Z" transform="translate(-409.5701 -402.96541)"/><path class="cls-50" d="M425.869,534.4027a55.33909,55.33909,0,0,0,94.4709-38.9657H409.6601A55.16962,55.16962,0,0,0,425.869,534.4027Z" transform="translate(-409.5701 -402.96541)"/><path class="cls-51" d="M425.869,533.5369a55.33909,55.33909,0,0,0,94.4709-38.9657H409.6601A55.16962,55.16962,0,0,0,425.869,533.5369Z" transform="translate(-409.5701 -402.96541)"/><path class="cls-52" d="M425.869,532.6711a55.33909,55.33909,0,0,0,94.4709-38.9657H409.6601A55.16962,55.16962,0,0,0,425.869,532.6711Z" transform="translate(-409.5701 -402.96541)"/><path class="cls-53" d="M425.869,531.8053a55.33909,55.33909,0,0,0,94.4709-38.9657H409.6601A55.16962,55.16962,0,0,0,425.869,531.8053Z" transform="translate(-409.5701 -402.96541)"/><path class="cls-54" d="M425.869,530.9396a55.33914,55.33914,0,0,0,94.4709-38.9658H409.6601A55.16968,55.16968,0,0,0,425.869,530.9396Z" transform="translate(-409.5701 -402.96541)"/><path class="cls-55" d="M425.869,530.0738a55.33914,55.33914,0,0,0,94.4709-38.9658H409.6601A55.16968,55.16968,0,0,0,425.869,530.0738Z" transform="translate(-409.5701 -402.96541)"/><path class="cls-56" d="M425.869,529.208a55.33914,55.33914,0,0,0,94.4709-38.9658H409.6601A55.16968,55.16968,0,0,0,425.869,529.208Z" transform="translate(-409.5701 -402.96541)"/><path class="cls-57" d="M425.869,528.3422a55.33914,55.33914,0,0,0,94.4709-38.9658H409.6601A55.16968,55.16968,0,0,0,425.869,528.3422Z" transform="translate(-409.5701 -402.96541)"/><path class="cls-58" d="M425.869,527.4764a55.33914,55.33914,0,0,0,94.4709-38.9658H409.6601A55.16968,55.16968,0,0,0,425.869,527.4764Z" transform="translate(-409.5701 -402.96541)"/><path class="cls-59" d="M425.869,526.6106a55.33909,55.33909,0,0,0,94.4709-38.9658H409.6601A55.16968,55.16968,0,0,0,425.869,526.6106Z" transform="translate(-409.5701 -402.96541)"/><path class="cls-60" d="M425.869,525.7448a55.33909,55.33909,0,0,0,94.4709-38.9658H409.6601A55.16968,55.16968,0,0,0,425.869,525.7448Z" transform="translate(-409.5701 -402.96541)"/><path class="cls-61" d="M425.869,524.879a55.33909,55.33909,0,0,0,94.4709-38.9658H409.6601A55.16968,55.16968,0,0,0,425.869,524.879Z" transform="translate(-409.5701 -402.96541)"/><path class="cls-62" d="M425.869,524.0132a55.33909,55.33909,0,0,0,94.4709-38.9658H409.6601A55.16968,55.16968,0,0,0,425.869,524.0132Z" transform="translate(-409.5701 -402.96541)"/><path class="cls-63" d="M425.869,523.1474a55.33909,55.33909,0,0,0,94.4709-38.9658H409.6601A55.16968,55.16968,0,0,0,425.869,523.1474Z" transform="translate(-409.5701 -402.96541)"/><path class="cls-64" d="M425.869,522.2816a55.33909,55.33909,0,0,0,94.4709-38.9658H409.6601A55.16968,55.16968,0,0,0,425.869,522.2816Z" transform="translate(-409.5701 -402.96541)"/><path class="cls-65" d="M425.869,521.4158a55.33909,55.33909,0,0,0,94.4709-38.9657H409.6601A55.16962,55.16962,0,0,0,425.869,521.4158Z" transform="translate(-409.5701 -402.96541)"/><path class="cls-66" d="M425.869,520.55a55.33909,55.33909,0,0,0,94.4709-38.9657H409.6601A55.16962,55.16962,0,0,0,425.869,520.55Z" transform="translate(-409.5701 -402.96541)"/><path class="cls-67" d="M425.869,519.6842a55.33909,55.33909,0,0,0,94.4709-38.9657H409.6601A55.16962,55.16962,0,0,0,425.869,519.6842Z" transform="translate(-409.5701 -402.96541)"/><path class="cls-68" d="M425.869,518.8185a55.33914,55.33914,0,0,0,94.4709-38.9658H409.6601A55.16968,55.16968,0,0,0,425.869,518.8185Z" transform="translate(-409.5701 -402.96541)"/><path class="cls-69" d="M425.869,517.9527a55.33914,55.33914,0,0,0,94.4709-38.9658H409.6601A55.16968,55.16968,0,0,0,425.869,517.9527Z" transform="translate(-409.5701 -402.96541)"/><path class="cls-70" d="M425.869,517.0869a55.33909,55.33909,0,0,0,94.4709-38.9658H409.6601A55.16968,55.16968,0,0,0,425.869,517.0869Z" transform="translate(-409.5701 -402.96541)"/><path class="cls-71" d="M425.869,516.2211a55.33909,55.33909,0,0,0,94.4709-38.9658H409.6601A55.16968,55.16968,0,0,0,425.869,516.2211Z" transform="translate(-409.5701 -402.96541)"/><path class="cls-72" d="M425.869,515.3553a55.33909,55.33909,0,0,0,94.4709-38.9658H409.6601A55.16968,55.16968,0,0,0,425.869,515.3553Z" transform="translate(-409.5701 -402.96541)"/><path class="cls-73" d="M425.869,514.4895a55.33909,55.33909,0,0,0,94.4709-38.9658H409.6601A55.16968,55.16968,0,0,0,425.869,514.4895Z" transform="translate(-409.5701 -402.96541)"/><path class="cls-74" d="M425.869,513.6237a55.33909,55.33909,0,0,0,94.4709-38.9658H409.6601A55.16968,55.16968,0,0,0,425.869,513.6237Z" transform="translate(-409.5701 -402.96541)"/><path class="cls-75" d="M425.869,512.7579a55.33909,55.33909,0,0,0,94.4709-38.9658H409.6601A55.16968,55.16968,0,0,0,425.869,512.7579Z" transform="translate(-409.5701 -402.96541)"/><path class="cls-76" d="M425.869,511.8921a55.33909,55.33909,0,0,0,94.4709-38.9658H409.6601A55.16968,55.16968,0,0,0,425.869,511.8921Z" transform="translate(-409.5701 -402.96541)"/><path class="cls-77" d="M425.869,511.0263a55.33909,55.33909,0,0,0,94.4709-38.9658H409.6601A55.16968,55.16968,0,0,0,425.869,511.0263Z" transform="translate(-409.5701 -402.96541)"/><path class="cls-78" d="M425.869,510.1605a55.33909,55.33909,0,0,0,94.4709-38.9658H409.6601A55.16968,55.16968,0,0,0,425.869,510.1605Z" transform="translate(-409.5701 -402.96541)"/><path class="cls-79" d="M425.869,509.2947a55.33909,55.33909,0,0,0,94.4709-38.9658H409.6601A55.16968,55.16968,0,0,0,425.869,509.2947Z" transform="translate(-409.5701 -402.96541)"/><path class="cls-80" d="M425.869,508.4289a55.33909,55.33909,0,0,0,94.4709-38.9658H409.6601A55.16968,55.16968,0,0,0,425.869,508.4289Z" transform="translate(-409.5701 -402.96541)"/><path class="cls-81" d="M425.869,507.5632a55.33914,55.33914,0,0,0,94.4709-38.9658H409.6601A55.16968,55.16968,0,0,0,425.869,507.5632Z" transform="translate(-409.5701 -402.96541)"/><path class="cls-82" d="M425.869,506.6974a55.33909,55.33909,0,0,0,94.4709-38.96579H409.6601A55.16967,55.16967,0,0,0,425.869,506.6974Z" transform="translate(-409.5701 -402.96541)"/><path class="cls-83" d="M425.869,505.8316a55.33909,55.33909,0,0,0,94.4709-38.96579H409.6601A55.16967,55.16967,0,0,0,425.869,505.8316Z" transform="translate(-409.5701 -402.96541)"/><path class="cls-84" d="M425.869,504.9658A55.33909,55.33909,0,0,0,520.3399,466H409.6601A55.16968,55.16968,0,0,0,425.869,504.9658Z" transform="translate(-409.5701 -402.96541)"/></g><path class="cls-85" d="M409.5701,437.30121a6.34664,6.34664,0,0,1,2.8609-4.9553l49.708-28.6992a6.34757,6.34757,0,0,1,5.7219,0l49.7082,28.6992a6.34707,6.34707,0,0,1,2.8608,4.9553V494.699a6.34707,6.34707,0,0,1-2.8608,4.9553l-49.7082,28.6991a6.34757,6.34757,0,0,1-5.7219,0l-49.708-28.6991a6.34664,6.34664,0,0,1-2.8609-4.9553Z" transform="translate(-409.5701 -402.96541)"/><g id="tv"><path class="cls-86" d="M494.5148,487.1285H435.4859a1.44577,1.44577,0,0,1-1.4438-1.4438V448.52531a1.446,1.446,0,0,1,1.4438-1.4445h59.0289a1.44584,1.44584,0,0,1,1.4431,1.4445V485.6847A1.44563,1.44563,0,0,1,494.5148,487.1285ZM435.4859,448.251a.27432.27432,0,0,0-.2738.27431V485.6847a.274.274,0,0,0,.2738.2736h59.0289a.27363.27363,0,0,0,.2731-.2736V448.52531a.27392.27392,0,0,0-.2731-.27431Z" transform="translate(-409.5701 -402.96541)"/><path class="cls-86" d="M465.0032,484.5768a.57259.57259,0,0,1-.1749-.0269.5885.5885,0,1,1,.5498-.1085A.58959.58959,0,0,1,465.0032,484.5768Z" transform="translate(-409.5701 -402.96541)"/><path class="cls-86" d="M495.014,482.0913H434.9864a.58505.58505,0,0,1,0-1.1701H495.014a.58505.58505,0,1,1,0,1.1701Z" transform="translate(-409.5701 -402.96541)"/><path class="cls-86" d="M464.9996,491.7144a.58486.58486,0,0,1-.5852-.5851v-4.3602a.58525.58525,0,0,1,1.1705,0v4.3602A.58488.58488,0,0,1,464.9996,491.7144Z" transform="translate(-409.5701 -402.96541)"/><path class="cls-86" d="M480.6324,491.9401H449.3673a.58505.58505,0,0,1,0-1.1701h31.2651a.58505.58505,0,1,1,0,1.1701Z" transform="translate(-409.5701 -402.96541)"/></g></g></g></svg>