<svg xmlns="http://www.w3.org/2000/svg" xmlns:xlink="http://www.w3.org/1999/xlink" viewBox="0 0 255.53 255.53"><defs><style>.cls-1{fill:none;}.cls-2{isolation:isolate;}.cls-3{clip-path:url(#clip-path);}.cls-4{mix-blend-mode:multiply;}.cls-5{fill:#1c4fc3;}</style><clipPath id="clip-path" transform="translate(-345.97 -68.59)"><circle class="cls-1" cx="473.74" cy="196.35" r="86.65"/></clipPath></defs><g class="cls-2"><g id="Layer_1" data-name="Layer 1"><g class="cls-3"><g class="cls-4"><rect class="cls-5" x="318.8" y="137.18" width="195.76" height="4.23" transform="translate(-322.43 266.85) rotate(-45)"/><rect class="cls-5" x="331.48" y="149.86" width="195.76" height="4.23" transform="translate(-327.68 279.53) rotate(-45)"/><rect class="cls-5" x="344.16" y="162.54" width="195.76" height="4.23" transform="translate(-332.93 292.21) rotate(-45)"/><rect class="cls-5" x="356.84" y="175.22" width="195.76" height="4.23" transform="translate(-338.19 304.88) rotate(-45)"/><rect class="cls-5" x="369.52" y="187.9" width="195.76" height="4.23" transform="translate(-343.44 317.56) rotate(-45)"/><rect class="cls-5" x="382.2" y="200.58" width="195.76" height="4.23" transform="translate(-348.69 330.24) rotate(-45)"/><rect class="cls-5" x="394.88" y="213.26" width="195.76" height="4.23" transform="translate(-353.94 342.92) rotate(-45)"/><rect class="cls-5" x="407.56" y="225.94" width="195.76" height="4.23" transform="translate(-359.19 355.6) rotate(-45)"/><rect class="cls-5" x="420.24" y="238.62" width="195.76" height="4.23" transform="translate(-364.45 368.28) rotate(-45)"/><rect class="cls-5" x="432.92" y="251.3" width="195.76" height="4.23" transform="translate(-369.7 380.96) rotate(-45)"/></g></g></g></g></svg>