<svg xmlns="http://www.w3.org/2000/svg" viewBox="0 0 110.86 188.34"><defs><style>.cls-1{isolation:isolate;}.cls-2{mix-blend-mode:multiply;}.cls-3,.cls-86{fill:#fff;}.cls-3{opacity:0;}.cls-4{fill:#fefefe;opacity:0.01;}.cls-5{fill:#fdfdfd;opacity:0.02;}.cls-6{fill:#fcfcfc;opacity:0.04;}.cls-7{fill:#fbfbfb;opacity:0.05;}.cls-8{fill:#fafafa;opacity:0.06;}.cls-9{fill:#f8f9f9;opacity:0.07;}.cls-10{fill:#f7f8f8;opacity:0.09;}.cls-11{fill:#f6f7f7;opacity:0.1;}.cls-12{fill:#f5f5f6;opacity:0.11;}.cls-13{fill:#f4f4f5;opacity:0.12;}.cls-14{fill:#f3f3f4;opacity:0.14;}.cls-15{fill:#f2f2f3;opacity:0.15;}.cls-16{fill:#f1f1f2;opacity:0.16;}.cls-17{fill:#f0f0f1;opacity:0.17;}.cls-18{fill:#efeff0;opacity:0.19;}.cls-19{fill:#eeeeef;opacity:0.2;}.cls-20{fill:#ededee;opacity:0.21;}.cls-21{fill:#ebeced;opacity:0.22;}.cls-22{fill:#eaebec;opacity:0.23;}.cls-23{fill:#e9eaeb;opacity:0.25;}.cls-24{fill:#e8e9e9;opacity:0.26;}.cls-25{fill:#e7e8e8;opacity:0.27;}.cls-26{fill:#e6e7e7;opacity:0.28;}.cls-27{fill:#e5e6e6;opacity:0.3;}.cls-28{fill:#e4e4e5;opacity:0.31;}.cls-29{fill:#e3e3e4;opacity:0.32;}.cls-30{fill:#e2e2e3;opacity:0.33;}.cls-31{fill:#e1e1e2;opacity:0.35;}.cls-32{fill:#dfe0e1;opacity:0.36;}.cls-33{fill:#dedfe0;opacity:0.37;}.cls-34{fill:#dddedf;opacity:0.38;}.cls-35{fill:#dcddde;opacity:0.4;}.cls-36{fill:#dbdcdd;opacity:0.41;}.cls-37{fill:#dadbdc;opacity:0.42;}.cls-38{fill:#d9dadb;opacity:0.43;}.cls-39{fill:#d8d9da;opacity:0.44;}.cls-40{fill:#d7d8d9;opacity:0.46;}.cls-41{fill:#d6d7d8;opacity:0.47;}.cls-42{fill:#d5d6d7;opacity:0.48;}.cls-43{fill:#d4d5d6;opacity:0.49;}.cls-44{fill:#d2d3d5;opacity:0.51;}.cls-45{fill:#d1d2d4;opacity:0.52;}.cls-46{fill:#d0d1d3;opacity:0.53;}.cls-47{fill:#cfd0d2;opacity:0.54;}.cls-48{fill:#cecfd1;opacity:0.56;}.cls-49{fill:#cdced0;opacity:0.57;}.cls-50{fill:#cccdcf;opacity:0.58;}.cls-51{fill:#cbccce;opacity:0.59;}.cls-52{fill:#cacbcd;opacity:0.6;}.cls-53{fill:#c9cacc;opacity:0.62;}.cls-54{fill:#c8c9cb;opacity:0.63;}.cls-55{fill:#c7c8ca;opacity:0.64;}.cls-56{fill:#c5c7c9;opacity:0.65;}.cls-57{fill:#c4c6c8;opacity:0.67;}.cls-58{fill:#c3c5c7;opacity:0.68;}.cls-59{fill:#c2c4c6;opacity:0.69;}.cls-60{fill:#c1c2c5;opacity:0.7;}.cls-61{fill:#c0c1c4;opacity:0.72;}.cls-62{fill:#bfc0c3;opacity:0.73;}.cls-63{fill:#bebfc2;opacity:0.74;}.cls-64{fill:#bdbec0;opacity:0.75;}.cls-65{fill:#bcbdbf;opacity:0.77;}.cls-66{fill:#bbbcbe;opacity:0.78;}.cls-67{fill:#b9bbbd;opacity:0.79;}.cls-68{fill:#b8babc;opacity:0.8;}.cls-69{fill:#b7b9bb;opacity:0.81;}.cls-70{fill:#b6b8ba;opacity:0.83;}.cls-71{fill:#b5b7b9;opacity:0.84;}.cls-72{fill:#b4b6b8;opacity:0.85;}.cls-73{fill:#b3b5b7;opacity:0.86;}.cls-74{fill:#b2b4b6;opacity:0.88;}.cls-75{fill:#b1b3b5;opacity:0.89;}.cls-76{fill:#b0b1b4;opacity:0.9;}.cls-77{fill:#afb0b3;opacity:0.91;}.cls-78{fill:#aeafb2;opacity:0.93;}.cls-79{fill:#acaeb1;opacity:0.94;}.cls-80{fill:#abadb0;opacity:0.95;}.cls-81{fill:#aaacaf;opacity:0.96;}.cls-82{fill:#a9abae;opacity:0.98;}.cls-83{fill:#a8aaad;opacity:0.99;}.cls-84{fill:#a7a9ac;}.cls-85{fill:#595f72;}</style></defs><g class="cls-1"><g id="Layer_1" data-name="Layer 1"><g class="cls-2"><path class="cls-3" d="M758.42,240.31a55.34,55.34,0,0,0,94.47-39H742.21A55.22,55.22,0,0,0,758.42,240.31Z" transform="translate(-742.12 -68.18)"/><path class="cls-4" d="M758.42,239.44a55.34,55.34,0,0,0,94.47-39H742.21A55.21,55.21,0,0,0,758.42,239.44Z" transform="translate(-742.12 -68.18)"/><path class="cls-5" d="M758.42,238.58a55.34,55.34,0,0,0,94.47-39H742.21A55.23,55.23,0,0,0,758.42,238.58Z" transform="translate(-742.12 -68.18)"/><path class="cls-6" d="M758.42,237.71a55.34,55.34,0,0,0,94.47-39H742.21A55.21,55.21,0,0,0,758.42,237.71Z" transform="translate(-742.12 -68.18)"/><path class="cls-7" d="M758.42,236.85a55.34,55.34,0,0,0,94.47-39H742.21A55.23,55.23,0,0,0,758.42,236.85Z" transform="translate(-742.12 -68.18)"/><path class="cls-8" d="M758.42,236a55.34,55.34,0,0,0,94.47-39H742.21A55.22,55.22,0,0,0,758.42,236Z" transform="translate(-742.12 -68.18)"/><path class="cls-9" d="M758.42,235.11a55.34,55.34,0,0,0,94.47-39H742.21A55.21,55.21,0,0,0,758.42,235.11Z" transform="translate(-742.12 -68.18)"/><path class="cls-10" d="M758.42,234.25a55.34,55.34,0,0,0,94.47-39H742.21A55.23,55.23,0,0,0,758.42,234.25Z" transform="translate(-742.12 -68.18)"/><path class="cls-11" d="M758.42,233.38a55.34,55.34,0,0,0,94.47-39H742.21A55.21,55.21,0,0,0,758.42,233.38Z" transform="translate(-742.12 -68.18)"/><path class="cls-12" d="M758.42,232.52a55.34,55.34,0,0,0,94.47-39H742.21A55.23,55.23,0,0,0,758.42,232.52Z" transform="translate(-742.12 -68.18)"/><path class="cls-13" d="M758.42,231.65a55.34,55.34,0,0,0,94.47-39H742.21A55.21,55.21,0,0,0,758.42,231.65Z" transform="translate(-742.12 -68.18)"/><path class="cls-14" d="M758.42,230.79a55.34,55.34,0,0,0,94.47-39H742.21A55.23,55.23,0,0,0,758.42,230.79Z" transform="translate(-742.12 -68.18)"/><path class="cls-15" d="M758.42,229.92a55.34,55.34,0,0,0,94.47-39H742.21A55.22,55.22,0,0,0,758.42,229.92Z" transform="translate(-742.12 -68.18)"/><path class="cls-16" d="M758.42,229.05a55.34,55.34,0,0,0,94.47-39H742.21A55.21,55.21,0,0,0,758.42,229.05Z" transform="translate(-742.12 -68.18)"/><path class="cls-17" d="M758.42,228.19a55.34,55.34,0,0,0,94.47-39H742.21A55.23,55.23,0,0,0,758.42,228.19Z" transform="translate(-742.12 -68.18)"/><path class="cls-18" d="M758.42,227.32a55.34,55.34,0,0,0,94.47-39H742.21A55.21,55.21,0,0,0,758.42,227.32Z" transform="translate(-742.12 -68.18)"/><path class="cls-19" d="M758.42,226.46a55.34,55.34,0,0,0,94.47-39H742.21A55.23,55.23,0,0,0,758.42,226.46Z" transform="translate(-742.12 -68.18)"/><path class="cls-20" d="M758.42,225.59a55.34,55.34,0,0,0,94.47-39H742.21A55.22,55.22,0,0,0,758.42,225.59Z" transform="translate(-742.12 -68.18)"/><path class="cls-21" d="M758.42,224.72a55.34,55.34,0,0,0,94.47-39H742.21A55.19,55.19,0,0,0,758.42,224.72Z" transform="translate(-742.12 -68.18)"/><path class="cls-22" d="M758.42,223.86a55.34,55.34,0,0,0,94.47-39H742.21A55.22,55.22,0,0,0,758.42,223.86Z" transform="translate(-742.12 -68.18)"/><path class="cls-23" d="M758.42,223a55.34,55.34,0,0,0,94.47-39H742.21A55.21,55.21,0,0,0,758.42,223Z" transform="translate(-742.12 -68.18)"/><path class="cls-24" d="M758.42,222.13a55.34,55.34,0,0,0,94.47-39H742.21A55.23,55.23,0,0,0,758.42,222.13Z" transform="translate(-742.12 -68.18)"/><path class="cls-25" d="M758.42,221.26a55.34,55.34,0,0,0,94.47-39H742.21A55.21,55.21,0,0,0,758.42,221.26Z" transform="translate(-742.12 -68.18)"/><path class="cls-26" d="M758.42,220.4a55.34,55.34,0,0,0,94.47-39H742.21A55.23,55.23,0,0,0,758.42,220.4Z" transform="translate(-742.12 -68.18)"/><path class="cls-27" d="M758.42,219.53a55.34,55.34,0,0,0,94.47-39H742.21A55.22,55.22,0,0,0,758.42,219.53Z" transform="translate(-742.12 -68.18)"/><path class="cls-28" d="M758.42,218.66a55.34,55.34,0,0,0,94.47-39H742.21A55.21,55.21,0,0,0,758.42,218.66Z" transform="translate(-742.12 -68.18)"/><path class="cls-29" d="M758.42,217.8a55.34,55.34,0,0,0,94.47-39H742.21A55.23,55.23,0,0,0,758.42,217.8Z" transform="translate(-742.12 -68.18)"/><path class="cls-30" d="M758.42,216.93a55.34,55.34,0,0,0,94.47-39H742.21A55.21,55.21,0,0,0,758.42,216.93Z" transform="translate(-742.12 -68.18)"/><path class="cls-31" d="M758.42,216.07a55.34,55.34,0,0,0,94.47-39H742.21A55.23,55.23,0,0,0,758.42,216.07Z" transform="translate(-742.12 -68.18)"/><path class="cls-32" d="M758.42,215.2a55.34,55.34,0,0,0,94.47-39H742.21A55.21,55.21,0,0,0,758.42,215.2Z" transform="translate(-742.12 -68.18)"/><path class="cls-33" d="M758.42,214.34a55.34,55.34,0,0,0,94.47-39H742.21A55.23,55.23,0,0,0,758.42,214.34Z" transform="translate(-742.12 -68.18)"/><path class="cls-34" d="M758.42,213.47a55.34,55.34,0,0,0,94.47-39H742.21A55.22,55.22,0,0,0,758.42,213.47Z" transform="translate(-742.12 -68.18)"/><path class="cls-35" d="M758.42,212.6a55.34,55.34,0,0,0,94.47-39H742.21A55.21,55.21,0,0,0,758.42,212.6Z" transform="translate(-742.12 -68.18)"/><path class="cls-36" d="M758.42,211.74a55.34,55.34,0,0,0,94.47-39H742.21A55.23,55.23,0,0,0,758.42,211.74Z" transform="translate(-742.12 -68.18)"/><path class="cls-37" d="M758.42,210.87a55.34,55.34,0,0,0,94.47-39H742.21A55.21,55.21,0,0,0,758.42,210.87Z" transform="translate(-742.12 -68.18)"/><path class="cls-38" d="M758.42,210a55.34,55.34,0,0,0,94.47-39H742.21A55.23,55.23,0,0,0,758.42,210Z" transform="translate(-742.12 -68.18)"/><path class="cls-39" d="M758.42,209.14a55.34,55.34,0,0,0,94.47-39H742.21A55.22,55.22,0,0,0,758.42,209.14Z" transform="translate(-742.12 -68.18)"/><path class="cls-40" d="M758.42,208.27a55.34,55.34,0,0,0,94.47-39H742.21A55.21,55.21,0,0,0,758.42,208.27Z" transform="translate(-742.12 -68.18)"/><path class="cls-41" d="M758.42,207.41a55.34,55.34,0,0,0,94.47-39H742.21A55.23,55.23,0,0,0,758.42,207.41Z" transform="translate(-742.12 -68.18)"/><path class="cls-42" d="M758.42,206.54a55.34,55.34,0,0,0,94.47-39H742.21A55.21,55.21,0,0,0,758.42,206.54Z" transform="translate(-742.12 -68.18)"/><path class="cls-43" d="M758.42,205.68a55.34,55.34,0,0,0,94.47-39H742.21A55.23,55.23,0,0,0,758.42,205.68Z" transform="translate(-742.12 -68.18)"/><path class="cls-44" d="M758.42,204.81a55.34,55.34,0,0,0,94.47-39H742.21A55.21,55.21,0,0,0,758.42,204.81Z" transform="translate(-742.12 -68.18)"/><path class="cls-45" d="M758.42,204a55.34,55.34,0,0,0,94.47-39H742.21A55.23,55.23,0,0,0,758.42,204Z" transform="translate(-742.12 -68.18)"/><path class="cls-46" d="M758.42,203.08a55.34,55.34,0,0,0,94.47-39H742.21A55.22,55.22,0,0,0,758.42,203.08Z" transform="translate(-742.12 -68.18)"/><path class="cls-47" d="M758.42,202.21a55.34,55.34,0,0,0,94.47-39H742.21A55.21,55.21,0,0,0,758.42,202.21Z" transform="translate(-742.12 -68.18)"/><path class="cls-48" d="M758.42,201.35a55.34,55.34,0,0,0,94.47-39H742.21A55.23,55.23,0,0,0,758.42,201.35Z" transform="translate(-742.12 -68.18)"/><path class="cls-49" d="M758.42,200.48a55.34,55.34,0,0,0,94.47-39H742.21A55.21,55.21,0,0,0,758.42,200.48Z" transform="translate(-742.12 -68.18)"/><path class="cls-50" d="M758.42,199.62a55.34,55.34,0,0,0,94.47-39H742.21A55.23,55.23,0,0,0,758.42,199.62Z" transform="translate(-742.12 -68.18)"/><path class="cls-51" d="M758.42,198.75a55.34,55.34,0,0,0,94.47-39H742.21A55.21,55.21,0,0,0,758.42,198.75Z" transform="translate(-742.12 -68.18)"/><path class="cls-52" d="M758.42,197.89a55.34,55.34,0,0,0,94.47-39H742.21A55.23,55.23,0,0,0,758.42,197.89Z" transform="translate(-742.12 -68.18)"/><path class="cls-53" d="M758.42,197a55.34,55.34,0,0,0,94.47-39H742.21A55.22,55.22,0,0,0,758.42,197Z" transform="translate(-742.12 -68.18)"/><path class="cls-54" d="M758.42,196.15a55.34,55.34,0,0,0,94.47-39H742.21A55.21,55.21,0,0,0,758.42,196.15Z" transform="translate(-742.12 -68.18)"/><path class="cls-55" d="M758.42,195.29a55.34,55.34,0,0,0,94.47-39H742.21A55.23,55.23,0,0,0,758.42,195.29Z" transform="translate(-742.12 -68.18)"/><path class="cls-56" d="M758.42,194.42a55.34,55.34,0,0,0,94.47-39H742.21A55.21,55.21,0,0,0,758.42,194.42Z" transform="translate(-742.12 -68.18)"/><path class="cls-57" d="M758.42,193.56a55.34,55.34,0,0,0,94.47-39H742.21A55.23,55.23,0,0,0,758.42,193.56Z" transform="translate(-742.12 -68.18)"/><path class="cls-58" d="M758.42,192.69a55.34,55.34,0,0,0,94.47-39H742.21A55.22,55.22,0,0,0,758.42,192.69Z" transform="translate(-742.12 -68.18)"/><path class="cls-59" d="M758.42,191.82a55.34,55.34,0,0,0,94.47-39H742.21A55.19,55.19,0,0,0,758.42,191.82Z" transform="translate(-742.12 -68.18)"/><path class="cls-60" d="M758.42,191a55.34,55.34,0,0,0,94.47-39H742.21A55.23,55.23,0,0,0,758.42,191Z" transform="translate(-742.12 -68.18)"/><path class="cls-61" d="M758.42,190.09a55.34,55.34,0,0,0,94.47-39H742.21A55.21,55.21,0,0,0,758.42,190.09Z" transform="translate(-742.12 -68.18)"/><path class="cls-62" d="M758.42,189.23a55.34,55.34,0,0,0,94.47-39H742.21A55.23,55.23,0,0,0,758.42,189.23Z" transform="translate(-742.12 -68.18)"/><path class="cls-63" d="M758.42,188.36a55.34,55.34,0,0,0,94.47-39H742.21A55.21,55.21,0,0,0,758.42,188.36Z" transform="translate(-742.12 -68.18)"/><path class="cls-64" d="M758.42,187.5a55.34,55.34,0,0,0,94.47-39H742.21A55.23,55.23,0,0,0,758.42,187.5Z" transform="translate(-742.12 -68.18)"/><path class="cls-65" d="M758.42,186.63a55.34,55.34,0,0,0,94.47-39H742.21A55.22,55.22,0,0,0,758.42,186.63Z" transform="translate(-742.12 -68.18)"/><path class="cls-66" d="M758.42,185.76a55.34,55.34,0,0,0,94.47-39H742.21A55.21,55.21,0,0,0,758.42,185.76Z" transform="translate(-742.12 -68.18)"/><path class="cls-67" d="M758.42,184.9a55.34,55.34,0,0,0,94.47-39H742.21A55.23,55.23,0,0,0,758.42,184.9Z" transform="translate(-742.12 -68.18)"/><path class="cls-68" d="M758.42,184a55.34,55.34,0,0,0,94.47-39H742.21A55.21,55.21,0,0,0,758.42,184Z" transform="translate(-742.12 -68.18)"/><path class="cls-69" d="M758.42,183.17a55.34,55.34,0,0,0,94.47-39H742.21A55.23,55.23,0,0,0,758.42,183.17Z" transform="translate(-742.12 -68.18)"/><path class="cls-70" d="M758.42,182.3a55.34,55.34,0,0,0,94.47-39H742.21A55.21,55.21,0,0,0,758.42,182.3Z" transform="translate(-742.12 -68.18)"/><path class="cls-71" d="M758.42,181.44a55.34,55.34,0,0,0,94.47-39H742.21A55.23,55.23,0,0,0,758.42,181.44Z" transform="translate(-742.12 -68.18)"/><path class="cls-72" d="M758.42,180.57a55.34,55.34,0,0,0,94.47-39H742.21A55.22,55.22,0,0,0,758.42,180.57Z" transform="translate(-742.12 -68.18)"/><path class="cls-73" d="M758.42,179.7a55.34,55.34,0,0,0,94.47-39H742.21A55.21,55.21,0,0,0,758.42,179.7Z" transform="translate(-742.12 -68.18)"/><path class="cls-74" d="M758.42,178.84a55.34,55.34,0,0,0,94.47-39H742.21A55.23,55.23,0,0,0,758.42,178.84Z" transform="translate(-742.12 -68.18)"/><path class="cls-75" d="M758.42,178a55.34,55.34,0,0,0,94.47-39H742.21A55.21,55.21,0,0,0,758.42,178Z" transform="translate(-742.12 -68.18)"/><path class="cls-76" d="M758.42,177.11a55.34,55.34,0,0,0,94.47-39H742.21A55.23,55.23,0,0,0,758.42,177.11Z" transform="translate(-742.12 -68.18)"/><path class="cls-77" d="M758.42,176.24a55.34,55.34,0,0,0,94.47-39H742.21A55.22,55.22,0,0,0,758.42,176.24Z" transform="translate(-742.12 -68.18)"/><path class="cls-78" d="M758.42,175.37a55.34,55.34,0,0,0,94.47-39H742.21A55.21,55.21,0,0,0,758.42,175.37Z" transform="translate(-742.12 -68.18)"/><path class="cls-79" d="M758.42,174.51a55.34,55.34,0,0,0,94.47-39H742.21A55.23,55.23,0,0,0,758.42,174.51Z" transform="translate(-742.12 -68.18)"/><path class="cls-80" d="M758.42,173.64a55.34,55.34,0,0,0,94.47-39H742.21A55.21,55.21,0,0,0,758.42,173.64Z" transform="translate(-742.12 -68.18)"/><path class="cls-81" d="M758.42,172.78a55.34,55.34,0,0,0,94.47-39H742.21A55.23,55.23,0,0,0,758.42,172.78Z" transform="translate(-742.12 -68.18)"/><path class="cls-82" d="M758.42,171.91a55.34,55.34,0,0,0,94.47-39H742.21A55.21,55.21,0,0,0,758.42,171.91Z" transform="translate(-742.12 -68.18)"/><path class="cls-83" d="M758.42,171.05a55.34,55.34,0,0,0,94.47-39H742.21A55.23,55.23,0,0,0,758.42,171.05Z" transform="translate(-742.12 -68.18)"/><path class="cls-84" d="M758.42,170.18a55.34,55.34,0,0,0,94.47-39H742.21A55.22,55.22,0,0,0,758.42,170.18Z" transform="translate(-742.12 -68.18)"/></g><path class="cls-85" d="M742.12,102.52a6.36,6.36,0,0,1,2.86-5l49.71-28.7a6.33,6.33,0,0,1,5.72,0l49.71,28.7a6.33,6.33,0,0,1,2.86,5v57.39a6.33,6.33,0,0,1-2.86,5l-49.71,28.7a6.33,6.33,0,0,1-5.72,0L745,164.87a6.36,6.36,0,0,1-2.86-5Z" transform="translate(-742.12 -68.18)"/><g id="cloud_software" data-name="cloud software"><path class="cls-86" d="M815.06,153.9h-35a15,15,0,0,1-12.34-23.59,15.24,15.24,0,0,1,4.66-4.35c.17-3.25,2.06-6.2,5.36-8.35a20.7,20.7,0,0,1,11.18-3,23.18,23.18,0,0,1,4.82.5,18.46,18.46,0,0,1,12-4.19,18.7,18.7,0,0,1,11.68,3.91,13.47,13.47,0,0,1,5.06,8.28,13.88,13.88,0,0,1,5,4.64,17.19,17.19,0,0,1,2.56,9.64C830,147.09,823.8,153.9,815.06,153.9Zm-26.15-38.17a19.66,19.66,0,0,0-10.55,2.86c-3.07,2-4.79,4.74-4.83,7.72v.34l-.29.16a13.86,13.86,0,0,0,6.81,25.92h35c8.06,0,13.75-6.34,13.85-15.4a16,16,0,0,0-2.37-9,12.81,12.81,0,0,0-4.85-4.39l-.27-.13,0-.31a12.25,12.25,0,0,0-4.67-7.82,17.54,17.54,0,0,0-11-3.65,17.21,17.21,0,0,0-11.48,4.09l-.22.2-.3-.07A22.11,22.11,0,0,0,788.91,115.73Z" transform="translate(-742.12 -68.18)"/><path class="cls-86" d="M778.07,153.08H776.9v-4.66a21.14,21.14,0,0,1,42.27,0v4.48H818v-4.48a20,20,0,0,0-39.93,0Z" transform="translate(-742.12 -68.18)"/><polygon class="cls-86" points="55.91 83 48.63 76.69 51.47 76.4 51.47 60.06 52.64 60.06 52.64 77.46 51.45 77.58 55.91 81.45 60.36 77.6 59.19 77.49 59.19 60.06 60.35 60.06 60.35 76.42 63.2 76.69 55.91 83"/></g></g></g></svg>