<svg xmlns="http://www.w3.org/2000/svg" viewBox="0 0 110.86 188.34"><defs><style>.cls-1{isolation:isolate;}.cls-2{mix-blend-mode:multiply;}.cls-3,.cls-86{fill:#fff;}.cls-3{opacity:0;}.cls-4{fill:#fefefe;opacity:0.01;}.cls-5{fill:#fdfdfd;opacity:0.02;}.cls-6{fill:#fcfcfc;opacity:0.04;}.cls-7{fill:#fbfbfb;opacity:0.05;}.cls-8{fill:#fafafa;opacity:0.06;}.cls-9{fill:#f8f9f9;opacity:0.07;}.cls-10{fill:#f7f8f8;opacity:0.09;}.cls-11{fill:#f6f7f7;opacity:0.1;}.cls-12{fill:#f5f5f6;opacity:0.11;}.cls-13{fill:#f4f4f5;opacity:0.12;}.cls-14{fill:#f3f3f4;opacity:0.14;}.cls-15{fill:#f2f2f3;opacity:0.15;}.cls-16{fill:#f1f1f2;opacity:0.16;}.cls-17{fill:#f0f0f1;opacity:0.17;}.cls-18{fill:#efeff0;opacity:0.19;}.cls-19{fill:#eeeeef;opacity:0.2;}.cls-20{fill:#ededee;opacity:0.21;}.cls-21{fill:#ebeced;opacity:0.22;}.cls-22{fill:#eaebec;opacity:0.23;}.cls-23{fill:#e9eaeb;opacity:0.25;}.cls-24{fill:#e8e9e9;opacity:0.26;}.cls-25{fill:#e7e8e8;opacity:0.27;}.cls-26{fill:#e6e7e7;opacity:0.28;}.cls-27{fill:#e5e6e6;opacity:0.3;}.cls-28{fill:#e4e4e5;opacity:0.31;}.cls-29{fill:#e3e3e4;opacity:0.32;}.cls-30{fill:#e2e2e3;opacity:0.33;}.cls-31{fill:#e1e1e2;opacity:0.35;}.cls-32{fill:#dfe0e1;opacity:0.36;}.cls-33{fill:#dedfe0;opacity:0.37;}.cls-34{fill:#dddedf;opacity:0.38;}.cls-35{fill:#dcddde;opacity:0.4;}.cls-36{fill:#dbdcdd;opacity:0.41;}.cls-37{fill:#dadbdc;opacity:0.42;}.cls-38{fill:#d9dadb;opacity:0.43;}.cls-39{fill:#d8d9da;opacity:0.44;}.cls-40{fill:#d7d8d9;opacity:0.46;}.cls-41{fill:#d6d7d8;opacity:0.47;}.cls-42{fill:#d5d6d7;opacity:0.48;}.cls-43{fill:#d4d5d6;opacity:0.49;}.cls-44{fill:#d2d3d5;opacity:0.51;}.cls-45{fill:#d1d2d4;opacity:0.52;}.cls-46{fill:#d0d1d3;opacity:0.53;}.cls-47{fill:#cfd0d2;opacity:0.54;}.cls-48{fill:#cecfd1;opacity:0.56;}.cls-49{fill:#cdced0;opacity:0.57;}.cls-50{fill:#cccdcf;opacity:0.58;}.cls-51{fill:#cbccce;opacity:0.59;}.cls-52{fill:#cacbcd;opacity:0.6;}.cls-53{fill:#c9cacc;opacity:0.62;}.cls-54{fill:#c8c9cb;opacity:0.63;}.cls-55{fill:#c7c8ca;opacity:0.64;}.cls-56{fill:#c5c7c9;opacity:0.65;}.cls-57{fill:#c4c6c8;opacity:0.67;}.cls-58{fill:#c3c5c7;opacity:0.68;}.cls-59{fill:#c2c4c6;opacity:0.69;}.cls-60{fill:#c1c2c5;opacity:0.7;}.cls-61{fill:#c0c1c4;opacity:0.72;}.cls-62{fill:#bfc0c3;opacity:0.73;}.cls-63{fill:#bebfc2;opacity:0.74;}.cls-64{fill:#bdbec0;opacity:0.75;}.cls-65{fill:#bcbdbf;opacity:0.77;}.cls-66{fill:#bbbcbe;opacity:0.78;}.cls-67{fill:#b9bbbd;opacity:0.79;}.cls-68{fill:#b8babc;opacity:0.8;}.cls-69{fill:#b7b9bb;opacity:0.81;}.cls-70{fill:#b6b8ba;opacity:0.83;}.cls-71{fill:#b5b7b9;opacity:0.84;}.cls-72{fill:#b4b6b8;opacity:0.85;}.cls-73{fill:#b3b5b7;opacity:0.86;}.cls-74{fill:#b2b4b6;opacity:0.88;}.cls-75{fill:#b1b3b5;opacity:0.89;}.cls-76{fill:#b0b1b4;opacity:0.9;}.cls-77{fill:#afb0b3;opacity:0.91;}.cls-78{fill:#aeafb2;opacity:0.93;}.cls-79{fill:#acaeb1;opacity:0.94;}.cls-80{fill:#abadb0;opacity:0.95;}.cls-81{fill:#aaacaf;opacity:0.96;}.cls-82{fill:#a9abae;opacity:0.98;}.cls-83{fill:#a8aaad;opacity:0.99;}.cls-84{fill:#a7a9ac;}.cls-85{fill:#595f72;}</style></defs><g class="cls-1"><g id="Layer_1" data-name="Layer 1"><g class="cls-2"><path class="cls-3" d="M259.59,909.88a55.34,55.34,0,0,0,94.47-39H243.38A55.21,55.21,0,0,0,259.59,909.88Z" transform="translate(-243.29 -737.75)"/><path class="cls-4" d="M259.59,909a55.34,55.34,0,0,0,94.47-39H243.38A55.23,55.23,0,0,0,259.59,909Z" transform="translate(-243.29 -737.75)"/><path class="cls-5" d="M259.59,908.15a55.34,55.34,0,0,0,94.47-39H243.38A55.22,55.22,0,0,0,259.59,908.15Z" transform="translate(-243.29 -737.75)"/><path class="cls-6" d="M259.59,907.28a55.34,55.34,0,0,0,94.47-39H243.38A55.21,55.21,0,0,0,259.59,907.28Z" transform="translate(-243.29 -737.75)"/><path class="cls-7" d="M259.59,906.42a55.34,55.34,0,0,0,94.47-39H243.38A55.23,55.23,0,0,0,259.59,906.42Z" transform="translate(-243.29 -737.75)"/><path class="cls-8" d="M259.59,905.55a55.34,55.34,0,0,0,94.47-39H243.38A55.21,55.21,0,0,0,259.59,905.55Z" transform="translate(-243.29 -737.75)"/><path class="cls-9" d="M259.59,904.69a55.34,55.34,0,0,0,94.47-39H243.38A55.23,55.23,0,0,0,259.59,904.69Z" transform="translate(-243.29 -737.75)"/><path class="cls-10" d="M259.59,903.82a55.34,55.34,0,0,0,94.47-39H243.38A55.22,55.22,0,0,0,259.59,903.82Z" transform="translate(-243.29 -737.75)"/><path class="cls-11" d="M259.59,903a55.33,55.33,0,0,0,94.47-39H243.38A55.21,55.21,0,0,0,259.59,903Z" transform="translate(-243.29 -737.75)"/><path class="cls-12" d="M259.59,902.09a55.34,55.34,0,0,0,94.47-39H243.38A55.23,55.23,0,0,0,259.59,902.09Z" transform="translate(-243.29 -737.75)"/><path class="cls-13" d="M259.59,901.22a55.34,55.34,0,0,0,94.47-39H243.38A55.21,55.21,0,0,0,259.59,901.22Z" transform="translate(-243.29 -737.75)"/><path class="cls-14" d="M259.59,900.36a55.34,55.34,0,0,0,94.47-39H243.38A55.23,55.23,0,0,0,259.59,900.36Z" transform="translate(-243.29 -737.75)"/><path class="cls-15" d="M259.59,899.49a55.34,55.34,0,0,0,94.47-39H243.38A55.21,55.21,0,0,0,259.59,899.49Z" transform="translate(-243.29 -737.75)"/><path class="cls-16" d="M259.59,898.63a55.34,55.34,0,0,0,94.47-39H243.38A55.23,55.23,0,0,0,259.59,898.63Z" transform="translate(-243.29 -737.75)"/><path class="cls-17" d="M259.59,897.76a55.34,55.34,0,0,0,94.47-39H243.38A55.22,55.22,0,0,0,259.59,897.76Z" transform="translate(-243.29 -737.75)"/><path class="cls-18" d="M259.59,896.89a55.33,55.33,0,0,0,94.47-39H243.38A55.21,55.21,0,0,0,259.59,896.89Z" transform="translate(-243.29 -737.75)"/><path class="cls-19" d="M259.59,896a55.34,55.34,0,0,0,94.47-39H243.38A55.23,55.23,0,0,0,259.59,896Z" transform="translate(-243.29 -737.75)"/><path class="cls-20" d="M259.59,895.16a55.34,55.34,0,0,0,94.47-39H243.38A55.21,55.21,0,0,0,259.59,895.16Z" transform="translate(-243.29 -737.75)"/><path class="cls-21" d="M259.59,894.3a55.34,55.34,0,0,0,94.47-39H243.38A55.23,55.23,0,0,0,259.59,894.3Z" transform="translate(-243.29 -737.75)"/><path class="cls-22" d="M259.59,893.43a55.34,55.34,0,0,0,94.47-39H243.38A55.21,55.21,0,0,0,259.59,893.43Z" transform="translate(-243.29 -737.75)"/><path class="cls-23" d="M259.59,892.57a55.34,55.34,0,0,0,94.47-39H243.38A55.23,55.23,0,0,0,259.59,892.57Z" transform="translate(-243.29 -737.75)"/><path class="cls-24" d="M259.59,891.7a55.34,55.34,0,0,0,94.47-39H243.38A55.22,55.22,0,0,0,259.59,891.7Z" transform="translate(-243.29 -737.75)"/><path class="cls-25" d="M259.59,890.83a55.34,55.34,0,0,0,94.47-39H243.38A55.21,55.21,0,0,0,259.59,890.83Z" transform="translate(-243.29 -737.75)"/><path class="cls-26" d="M259.59,890a55.34,55.34,0,0,0,94.47-39H243.38A55.23,55.23,0,0,0,259.59,890Z" transform="translate(-243.29 -737.75)"/><path class="cls-27" d="M259.59,889.1a55.34,55.34,0,0,0,94.47-39H243.38A55.21,55.21,0,0,0,259.59,889.1Z" transform="translate(-243.29 -737.75)"/><path class="cls-28" d="M259.59,888.24a55.34,55.34,0,0,0,94.47-39H243.38A55.23,55.23,0,0,0,259.59,888.24Z" transform="translate(-243.29 -737.75)"/><path class="cls-29" d="M259.59,887.37a55.34,55.34,0,0,0,94.47-39H243.38A55.22,55.22,0,0,0,259.59,887.37Z" transform="translate(-243.29 -737.75)"/><path class="cls-30" d="M259.59,886.5a55.33,55.33,0,0,0,94.47-39H243.38A55.19,55.19,0,0,0,259.59,886.5Z" transform="translate(-243.29 -737.75)"/><path class="cls-31" d="M259.59,885.64a55.34,55.34,0,0,0,94.47-39H243.38A55.23,55.23,0,0,0,259.59,885.64Z" transform="translate(-243.29 -737.75)"/><path class="cls-32" d="M259.59,884.77a55.34,55.34,0,0,0,94.47-39H243.38A55.21,55.21,0,0,0,259.59,884.77Z" transform="translate(-243.29 -737.75)"/><path class="cls-33" d="M259.59,883.91a55.34,55.34,0,0,0,94.47-39H243.38A55.23,55.23,0,0,0,259.59,883.91Z" transform="translate(-243.29 -737.75)"/><path class="cls-34" d="M259.59,883a55.34,55.34,0,0,0,94.47-39H243.38A55.21,55.21,0,0,0,259.59,883Z" transform="translate(-243.29 -737.75)"/><path class="cls-35" d="M259.59,882.18a55.34,55.34,0,0,0,94.47-39H243.38A55.23,55.23,0,0,0,259.59,882.18Z" transform="translate(-243.29 -737.75)"/><path class="cls-36" d="M259.59,881.31a55.34,55.34,0,0,0,94.47-39H243.38A55.22,55.22,0,0,0,259.59,881.31Z" transform="translate(-243.29 -737.75)"/><path class="cls-37" d="M259.59,880.44a55.34,55.34,0,0,0,94.47-39H243.38A55.21,55.21,0,0,0,259.59,880.44Z" transform="translate(-243.29 -737.75)"/><path class="cls-38" d="M259.59,879.58a55.34,55.34,0,0,0,94.47-39H243.38A55.23,55.23,0,0,0,259.59,879.58Z" transform="translate(-243.29 -737.75)"/><path class="cls-39" d="M259.59,878.71a55.34,55.34,0,0,0,94.47-39H243.38A55.21,55.21,0,0,0,259.59,878.71Z" transform="translate(-243.29 -737.75)"/><path class="cls-40" d="M259.59,877.85a55.34,55.34,0,0,0,94.47-39H243.38A55.23,55.23,0,0,0,259.59,877.85Z" transform="translate(-243.29 -737.75)"/><path class="cls-41" d="M259.59,877a55.34,55.34,0,0,0,94.47-39H243.38A55.22,55.22,0,0,0,259.59,877Z" transform="translate(-243.29 -737.75)"/><path class="cls-42" d="M259.59,876.11a55.33,55.33,0,0,0,94.47-39H243.38A55.19,55.19,0,0,0,259.59,876.11Z" transform="translate(-243.29 -737.75)"/><path class="cls-43" d="M259.59,875.25a55.34,55.34,0,0,0,94.47-39H243.38A55.22,55.22,0,0,0,259.59,875.25Z" transform="translate(-243.29 -737.75)"/><path class="cls-44" d="M259.59,874.38a55.34,55.34,0,0,0,94.47-39H243.38A55.21,55.21,0,0,0,259.59,874.38Z" transform="translate(-243.29 -737.75)"/><path class="cls-45" d="M259.59,873.52a55.34,55.34,0,0,0,94.47-39H243.38A55.23,55.23,0,0,0,259.59,873.52Z" transform="translate(-243.29 -737.75)"/><path class="cls-46" d="M259.59,872.65a55.34,55.34,0,0,0,94.47-39H243.38A55.21,55.21,0,0,0,259.59,872.65Z" transform="translate(-243.29 -737.75)"/><path class="cls-47" d="M259.59,871.79a55.34,55.34,0,0,0,94.47-39H243.38A55.23,55.23,0,0,0,259.59,871.79Z" transform="translate(-243.29 -737.75)"/><path class="cls-48" d="M259.59,870.92a55.34,55.34,0,0,0,94.47-39H243.38A55.22,55.22,0,0,0,259.59,870.92Z" transform="translate(-243.29 -737.75)"/><path class="cls-49" d="M259.59,870.05a55.33,55.33,0,0,0,94.47-39H243.38A55.21,55.21,0,0,0,259.59,870.05Z" transform="translate(-243.29 -737.75)"/><path class="cls-50" d="M259.59,869.19a55.34,55.34,0,0,0,94.47-39H243.38A55.23,55.23,0,0,0,259.59,869.19Z" transform="translate(-243.29 -737.75)"/><path class="cls-51" d="M259.59,868.32a55.34,55.34,0,0,0,94.47-39H243.38A55.21,55.21,0,0,0,259.59,868.32Z" transform="translate(-243.29 -737.75)"/><path class="cls-52" d="M259.59,867.46a55.34,55.34,0,0,0,94.47-39H243.38A55.23,55.23,0,0,0,259.59,867.46Z" transform="translate(-243.29 -737.75)"/><path class="cls-53" d="M259.59,866.59a55.34,55.34,0,0,0,94.47-39H243.38A55.21,55.21,0,0,0,259.59,866.59Z" transform="translate(-243.29 -737.75)"/><path class="cls-54" d="M259.59,865.73a55.34,55.34,0,0,0,94.47-39H243.38A55.23,55.23,0,0,0,259.59,865.73Z" transform="translate(-243.29 -737.75)"/><path class="cls-55" d="M259.59,864.86a55.34,55.34,0,0,0,94.47-39H243.38A55.22,55.22,0,0,0,259.59,864.86Z" transform="translate(-243.29 -737.75)"/><path class="cls-56" d="M259.59,864a55.33,55.33,0,0,0,94.47-39H243.38A55.21,55.21,0,0,0,259.59,864Z" transform="translate(-243.29 -737.75)"/><path class="cls-57" d="M259.59,863.13a55.34,55.34,0,0,0,94.47-39H243.38A55.23,55.23,0,0,0,259.59,863.13Z" transform="translate(-243.29 -737.75)"/><path class="cls-58" d="M259.59,862.26a55.34,55.34,0,0,0,94.47-39H243.38A55.21,55.21,0,0,0,259.59,862.26Z" transform="translate(-243.29 -737.75)"/><path class="cls-59" d="M259.59,861.4a55.34,55.34,0,0,0,94.47-39H243.38A55.23,55.23,0,0,0,259.59,861.4Z" transform="translate(-243.29 -737.75)"/><path class="cls-60" d="M259.59,860.53a55.34,55.34,0,0,0,94.47-39H243.38A55.21,55.21,0,0,0,259.59,860.53Z" transform="translate(-243.29 -737.75)"/><path class="cls-61" d="M259.59,859.67a55.34,55.34,0,0,0,94.47-39H243.38A55.23,55.23,0,0,0,259.59,859.67Z" transform="translate(-243.29 -737.75)"/><path class="cls-62" d="M259.59,858.8a55.34,55.34,0,0,0,94.47-39H243.38A55.22,55.22,0,0,0,259.59,858.8Z" transform="translate(-243.29 -737.75)"/><path class="cls-63" d="M259.59,857.93a55.34,55.34,0,0,0,94.47-39H243.38A55.21,55.21,0,0,0,259.59,857.93Z" transform="translate(-243.29 -737.75)"/><path class="cls-64" d="M259.59,857.07a55.34,55.34,0,0,0,94.47-39H243.38A55.23,55.23,0,0,0,259.59,857.07Z" transform="translate(-243.29 -737.75)"/><path class="cls-65" d="M259.59,856.2a55.34,55.34,0,0,0,94.47-39H243.38A55.21,55.21,0,0,0,259.59,856.2Z" transform="translate(-243.29 -737.75)"/><path class="cls-66" d="M259.59,855.34a55.34,55.34,0,0,0,94.47-39H243.38A55.23,55.23,0,0,0,259.59,855.34Z" transform="translate(-243.29 -737.75)"/><path class="cls-67" d="M259.59,854.47a55.34,55.34,0,0,0,94.47-39H243.38A55.22,55.22,0,0,0,259.59,854.47Z" transform="translate(-243.29 -737.75)"/><path class="cls-68" d="M259.59,853.6a55.33,55.33,0,0,0,94.47-39H243.38A55.21,55.21,0,0,0,259.59,853.6Z" transform="translate(-243.29 -737.75)"/><path class="cls-69" d="M259.59,852.74a55.34,55.34,0,0,0,94.47-39H243.38A55.23,55.23,0,0,0,259.59,852.74Z" transform="translate(-243.29 -737.75)"/><path class="cls-70" d="M259.59,851.87a55.34,55.34,0,0,0,94.47-39H243.38A55.21,55.21,0,0,0,259.59,851.87Z" transform="translate(-243.29 -737.75)"/><path class="cls-71" d="M259.59,851a55.34,55.34,0,0,0,94.47-39H243.38A55.23,55.23,0,0,0,259.59,851Z" transform="translate(-243.29 -737.75)"/><path class="cls-72" d="M259.59,850.14a55.34,55.34,0,0,0,94.47-39H243.38A55.21,55.21,0,0,0,259.59,850.14Z" transform="translate(-243.29 -737.75)"/><path class="cls-73" d="M259.59,849.28a55.34,55.34,0,0,0,94.47-39H243.38A55.23,55.23,0,0,0,259.59,849.28Z" transform="translate(-243.29 -737.75)"/><path class="cls-74" d="M259.59,848.41a55.34,55.34,0,0,0,94.47-39H243.38A55.22,55.22,0,0,0,259.59,848.41Z" transform="translate(-243.29 -737.75)"/><path class="cls-75" d="M259.59,847.54a55.33,55.33,0,0,0,94.47-39H243.38A55.21,55.21,0,0,0,259.59,847.54Z" transform="translate(-243.29 -737.75)"/><path class="cls-76" d="M259.59,846.68a55.34,55.34,0,0,0,94.47-39H243.38A55.23,55.23,0,0,0,259.59,846.68Z" transform="translate(-243.29 -737.75)"/><path class="cls-77" d="M259.59,845.81a55.34,55.34,0,0,0,94.47-39H243.38A55.21,55.21,0,0,0,259.59,845.81Z" transform="translate(-243.29 -737.75)"/><path class="cls-78" d="M259.59,845a55.34,55.34,0,0,0,94.47-39H243.38A55.23,55.23,0,0,0,259.59,845Z" transform="translate(-243.29 -737.75)"/><path class="cls-79" d="M259.59,844.08a55.34,55.34,0,0,0,94.47-39H243.38A55.22,55.22,0,0,0,259.59,844.08Z" transform="translate(-243.29 -737.75)"/><path class="cls-80" d="M259.59,843.21a55.33,55.33,0,0,0,94.47-39H243.38A55.19,55.19,0,0,0,259.59,843.21Z" transform="translate(-243.29 -737.75)"/><path class="cls-81" d="M259.59,842.35a55.34,55.34,0,0,0,94.47-39H243.38A55.22,55.22,0,0,0,259.59,842.35Z" transform="translate(-243.29 -737.75)"/><path class="cls-82" d="M259.59,841.48a55.34,55.34,0,0,0,94.47-39H243.38A55.21,55.21,0,0,0,259.59,841.48Z" transform="translate(-243.29 -737.75)"/><path class="cls-83" d="M259.59,840.62a55.34,55.34,0,0,0,94.47-39H243.38A55.23,55.23,0,0,0,259.59,840.62Z" transform="translate(-243.29 -737.75)"/><path class="cls-84" d="M259.59,839.75a55.34,55.34,0,0,0,94.47-39H243.38A55.21,55.21,0,0,0,259.59,839.75Z" transform="translate(-243.29 -737.75)"/></g><path class="cls-85" d="M243.29,772.09a6.36,6.36,0,0,1,2.86-5l49.71-28.7a6.33,6.33,0,0,1,5.72,0l49.71,28.7a6.33,6.33,0,0,1,2.86,5v57.4a6.33,6.33,0,0,1-2.86,5l-49.71,28.7a6.33,6.33,0,0,1-5.72,0l-49.71-28.7a6.36,6.36,0,0,1-2.86-5Z" transform="translate(-243.29 -737.75)"/><g id="cloud_software" data-name="cloud software"><path class="cls-86" d="M316.23,821.13h-35a15,15,0,0,1-12.34-23.58,15.27,15.27,0,0,1,4.66-4.36c.17-3.25,2.06-6.2,5.36-8.35a20.79,20.79,0,0,1,11.18-3.05,23.18,23.18,0,0,1,4.82.5,18.46,18.46,0,0,1,12-4.19A18.7,18.7,0,0,1,318.61,782a13.48,13.48,0,0,1,5.06,8.28,13.88,13.88,0,0,1,5,4.64,17.19,17.19,0,0,1,2.56,9.64C331.15,814.32,325,821.13,316.23,821.13ZM290.08,783a19.49,19.49,0,0,0-10.54,2.87c-3.08,2-4.8,4.73-4.84,7.71v.34l-.29.17a13.91,13.91,0,0,0-4.57,4.16A13.85,13.85,0,0,0,281.22,820h35c8.06,0,13.75-6.34,13.85-15.4a16,16,0,0,0-2.37-9,12.71,12.71,0,0,0-4.85-4.38l-.26-.14-.05-.3a12.2,12.2,0,0,0-4.67-7.83,17.54,17.54,0,0,0-10.95-3.65,17.26,17.26,0,0,0-11.48,4.09l-.22.2-.3-.07A22,22,0,0,0,290.08,783Z" transform="translate(-243.29 -737.75)"/><path class="cls-86" d="M279.24,820.31h-1.17v-4.65a21.14,21.14,0,1,1,42.27,0v4.47h-1.17v-4.47a20,20,0,1,0-39.93,0Z" transform="translate(-243.29 -737.75)"/><path class="cls-86" d="M303.65,821.13h-8.89V807.9l-2.85-.26,7.29-6.32,7.29,6.32-2.84.27ZM295.93,820h6.55V806.85l1.19-.11-4.47-3.87-4.45,3.86,1.18.11Z" transform="translate(-243.29 -737.75)"/></g></g></g></svg>