<svg id="Layer_1" data-name="Layer 1" xmlns="http://www.w3.org/2000/svg" viewBox="0 0 81.09 81.15"><defs><style>.cls-1{opacity:0.5;}.cls-2{fill:#1c4fc3;}</style></defs><g class="cls-1"><circle class="cls-2" cx="77.14" cy="3.96" r="3.96"/><circle class="cls-2" cx="62.5" cy="3.96" r="3.96"/><circle class="cls-2" cx="47.86" cy="3.96" r="3.96"/><path class="cls-2" d="M1189.27,51.34a4,4,0,1,0,4-4A4,4,0,0,0,1189.27,51.34Z" transform="translate(-1160 -47.38)"/><circle class="cls-2" cx="18.59" cy="3.96" r="3.96"/><circle class="cls-2" cx="3.96" cy="3.96" r="3.96"/><path class="cls-2" d="M1233.18,65.58a4,4,0,1,0,4-4A4,4,0,0,0,1233.18,65.58Z" transform="translate(-1160 -47.38)"/><path class="cls-2" d="M1218.54,65.58a4,4,0,1,0,4-4A4,4,0,0,0,1218.54,65.58Z" transform="translate(-1160 -47.38)"/><path class="cls-2" d="M1203.91,65.58a4,4,0,1,0,3.95-4A4,4,0,0,0,1203.91,65.58Z" transform="translate(-1160 -47.38)"/><path class="cls-2" d="M1189.27,65.58a4,4,0,1,0,4-4A4,4,0,0,0,1189.27,65.58Z" transform="translate(-1160 -47.38)"/><path class="cls-2" d="M1174.64,65.58a4,4,0,1,0,3.95-4A4,4,0,0,0,1174.64,65.58Z" transform="translate(-1160 -47.38)"/><path class="cls-2" d="M1160,65.58a4,4,0,1,0,4-4A4,4,0,0,0,1160,65.58Z" transform="translate(-1160 -47.38)"/><circle class="cls-2" cx="77.14" cy="33.96" r="3.96"/><circle class="cls-2" cx="62.5" cy="33.96" r="3.96"/><circle class="cls-2" cx="47.86" cy="33.96" r="3.96"/><path class="cls-2" d="M1189.27,81.34a4,4,0,1,0,4-4A4,4,0,0,0,1189.27,81.34Z" transform="translate(-1160 -47.38)"/><circle class="cls-2" cx="18.59" cy="33.96" r="3.96"/><circle class="cls-2" cx="3.96" cy="33.96" r="3.96"/><path class="cls-2" d="M1233.18,95.58a4,4,0,1,0,4-4A4,4,0,0,0,1233.18,95.58Z" transform="translate(-1160 -47.38)"/><path class="cls-2" d="M1218.54,95.58a4,4,0,1,0,4-4A4,4,0,0,0,1218.54,95.58Z" transform="translate(-1160 -47.38)"/><path class="cls-2" d="M1203.91,95.58a4,4,0,1,0,3.95-4A4,4,0,0,0,1203.91,95.58Z" transform="translate(-1160 -47.38)"/><path class="cls-2" d="M1189.27,95.58a4,4,0,1,0,4-4A4,4,0,0,0,1189.27,95.58Z" transform="translate(-1160 -47.38)"/><path class="cls-2" d="M1174.64,95.58a4,4,0,1,0,3.95-4A4,4,0,0,0,1174.64,95.58Z" transform="translate(-1160 -47.38)"/><path class="cls-2" d="M1160,95.58a4,4,0,1,0,4-4A4,4,0,0,0,1160,95.58Z" transform="translate(-1160 -47.38)"/><circle class="cls-2" cx="77.14" cy="62.96" r="3.96"/><circle class="cls-2" cx="62.5" cy="62.96" r="3.96"/><circle class="cls-2" cx="47.86" cy="62.96" r="3.96"/><path class="cls-2" d="M1189.27,110.34a4,4,0,1,0,4-4A4,4,0,0,0,1189.27,110.34Z" transform="translate(-1160 -47.38)"/><circle class="cls-2" cx="18.59" cy="62.96" r="3.96"/><circle class="cls-2" cx="3.96" cy="62.96" r="3.96"/><path class="cls-2" d="M1233.18,124.58a4,4,0,1,0,4-4A4,4,0,0,0,1233.18,124.58Z" transform="translate(-1160 -47.38)"/><path class="cls-2" d="M1218.54,124.58a4,4,0,1,0,4-4A4,4,0,0,0,1218.54,124.58Z" transform="translate(-1160 -47.38)"/><path class="cls-2" d="M1203.91,124.58a4,4,0,1,0,3.95-4A4,4,0,0,0,1203.91,124.58Z" transform="translate(-1160 -47.38)"/><path class="cls-2" d="M1189.27,124.58a4,4,0,1,0,4-4A4,4,0,0,0,1189.27,124.58Z" transform="translate(-1160 -47.38)"/><path class="cls-2" d="M1174.64,124.58a4,4,0,1,0,3.95-4A4,4,0,0,0,1174.64,124.58Z" transform="translate(-1160 -47.38)"/><path class="cls-2" d="M1160,124.58a4,4,0,1,0,4-4A4,4,0,0,0,1160,124.58Z" transform="translate(-1160 -47.38)"/></g></svg>