<svg xmlns="http://www.w3.org/2000/svg" viewBox="0 0 110.86 188.34"><defs><style>.cls-1{isolation:isolate;}.cls-2{mix-blend-mode:multiply;}.cls-3,.cls-86{fill:#fff;}.cls-3{opacity:0;}.cls-4{fill:#fefefe;opacity:0.01;}.cls-5{fill:#fdfdfd;opacity:0.02;}.cls-6{fill:#fcfcfc;opacity:0.04;}.cls-7{fill:#fbfbfb;opacity:0.05;}.cls-8{fill:#fafafa;opacity:0.06;}.cls-9{fill:#f8f9f9;opacity:0.07;}.cls-10{fill:#f7f8f8;opacity:0.09;}.cls-11{fill:#f6f7f7;opacity:0.1;}.cls-12{fill:#f5f5f6;opacity:0.11;}.cls-13{fill:#f4f4f5;opacity:0.12;}.cls-14{fill:#f3f3f4;opacity:0.14;}.cls-15{fill:#f2f2f3;opacity:0.15;}.cls-16{fill:#f1f1f2;opacity:0.16;}.cls-17{fill:#f0f0f1;opacity:0.17;}.cls-18{fill:#efeff0;opacity:0.19;}.cls-19{fill:#eeeeef;opacity:0.2;}.cls-20{fill:#ededee;opacity:0.21;}.cls-21{fill:#ebeced;opacity:0.22;}.cls-22{fill:#eaebec;opacity:0.23;}.cls-23{fill:#e9eaeb;opacity:0.25;}.cls-24{fill:#e8e9e9;opacity:0.26;}.cls-25{fill:#e7e8e8;opacity:0.27;}.cls-26{fill:#e6e7e7;opacity:0.28;}.cls-27{fill:#e5e6e6;opacity:0.3;}.cls-28{fill:#e4e4e5;opacity:0.31;}.cls-29{fill:#e3e3e4;opacity:0.32;}.cls-30{fill:#e2e2e3;opacity:0.33;}.cls-31{fill:#e1e1e2;opacity:0.35;}.cls-32{fill:#dfe0e1;opacity:0.36;}.cls-33{fill:#dedfe0;opacity:0.37;}.cls-34{fill:#dddedf;opacity:0.38;}.cls-35{fill:#dcddde;opacity:0.4;}.cls-36{fill:#dbdcdd;opacity:0.41;}.cls-37{fill:#dadbdc;opacity:0.42;}.cls-38{fill:#d9dadb;opacity:0.43;}.cls-39{fill:#d8d9da;opacity:0.44;}.cls-40{fill:#d7d8d9;opacity:0.46;}.cls-41{fill:#d6d7d8;opacity:0.47;}.cls-42{fill:#d5d6d7;opacity:0.48;}.cls-43{fill:#d4d5d6;opacity:0.49;}.cls-44{fill:#d2d3d5;opacity:0.51;}.cls-45{fill:#d1d2d4;opacity:0.52;}.cls-46{fill:#d0d1d3;opacity:0.53;}.cls-47{fill:#cfd0d2;opacity:0.54;}.cls-48{fill:#cecfd1;opacity:0.56;}.cls-49{fill:#cdced0;opacity:0.57;}.cls-50{fill:#cccdcf;opacity:0.58;}.cls-51{fill:#cbccce;opacity:0.59;}.cls-52{fill:#cacbcd;opacity:0.6;}.cls-53{fill:#c9cacc;opacity:0.62;}.cls-54{fill:#c8c9cb;opacity:0.63;}.cls-55{fill:#c7c8ca;opacity:0.64;}.cls-56{fill:#c5c7c9;opacity:0.65;}.cls-57{fill:#c4c6c8;opacity:0.67;}.cls-58{fill:#c3c5c7;opacity:0.68;}.cls-59{fill:#c2c4c6;opacity:0.69;}.cls-60{fill:#c1c2c5;opacity:0.7;}.cls-61{fill:#c0c1c4;opacity:0.72;}.cls-62{fill:#bfc0c3;opacity:0.73;}.cls-63{fill:#bebfc2;opacity:0.74;}.cls-64{fill:#bdbec0;opacity:0.75;}.cls-65{fill:#bcbdbf;opacity:0.77;}.cls-66{fill:#bbbcbe;opacity:0.78;}.cls-67{fill:#b9bbbd;opacity:0.79;}.cls-68{fill:#b8babc;opacity:0.8;}.cls-69{fill:#b7b9bb;opacity:0.81;}.cls-70{fill:#b6b8ba;opacity:0.83;}.cls-71{fill:#b5b7b9;opacity:0.84;}.cls-72{fill:#b4b6b8;opacity:0.85;}.cls-73{fill:#b3b5b7;opacity:0.86;}.cls-74{fill:#b2b4b6;opacity:0.88;}.cls-75{fill:#b1b3b5;opacity:0.89;}.cls-76{fill:#b0b1b4;opacity:0.9;}.cls-77{fill:#afb0b3;opacity:0.91;}.cls-78{fill:#aeafb2;opacity:0.93;}.cls-79{fill:#acaeb1;opacity:0.94;}.cls-80{fill:#abadb0;opacity:0.95;}.cls-81{fill:#aaacaf;opacity:0.96;}.cls-82{fill:#a9abae;opacity:0.98;}.cls-83{fill:#a8aaad;opacity:0.99;}.cls-84{fill:#a7a9ac;}.cls-85{fill:#595f72;}</style></defs><g class="cls-1"><g id="Layer_1" data-name="Layer 1"><g class="cls-2"><path class="cls-3" d="M259.59,742.49a55.34,55.34,0,0,0,94.47-39H243.38A55.23,55.23,0,0,0,259.59,742.49Z" transform="translate(-243.29 -570.36)"/><path class="cls-4" d="M259.59,741.62a55.34,55.34,0,0,0,94.47-39H243.38A55.21,55.21,0,0,0,259.59,741.62Z" transform="translate(-243.29 -570.36)"/><path class="cls-5" d="M259.59,740.76a55.34,55.34,0,0,0,94.47-39H243.38A55.23,55.23,0,0,0,259.59,740.76Z" transform="translate(-243.29 -570.36)"/><path class="cls-6" d="M259.59,739.89a55.34,55.34,0,0,0,94.47-39H243.38A55.22,55.22,0,0,0,259.59,739.89Z" transform="translate(-243.29 -570.36)"/><path class="cls-7" d="M259.59,739a55.33,55.33,0,0,0,94.47-39H243.38A55.19,55.19,0,0,0,259.59,739Z" transform="translate(-243.29 -570.36)"/><path class="cls-8" d="M259.59,738.16a55.34,55.34,0,0,0,94.47-39H243.38A55.22,55.22,0,0,0,259.59,738.16Z" transform="translate(-243.29 -570.36)"/><path class="cls-9" d="M259.59,737.29a55.34,55.34,0,0,0,94.47-39H243.38A55.21,55.21,0,0,0,259.59,737.29Z" transform="translate(-243.29 -570.36)"/><path class="cls-10" d="M259.59,736.43a55.34,55.34,0,0,0,94.47-39H243.38A55.23,55.23,0,0,0,259.59,736.43Z" transform="translate(-243.29 -570.36)"/><path class="cls-11" d="M259.59,735.56a55.34,55.34,0,0,0,94.47-39H243.38A55.21,55.21,0,0,0,259.59,735.56Z" transform="translate(-243.29 -570.36)"/><path class="cls-12" d="M259.59,734.7a55.34,55.34,0,0,0,94.47-39H243.38A55.23,55.23,0,0,0,259.59,734.7Z" transform="translate(-243.29 -570.36)"/><path class="cls-13" d="M259.59,733.83a55.34,55.34,0,0,0,94.47-39H243.38A55.22,55.22,0,0,0,259.59,733.83Z" transform="translate(-243.29 -570.36)"/><path class="cls-14" d="M259.59,733a55.33,55.33,0,0,0,94.47-39H243.38A55.21,55.21,0,0,0,259.59,733Z" transform="translate(-243.29 -570.36)"/><path class="cls-15" d="M259.59,732.1a55.34,55.34,0,0,0,94.47-39H243.38A55.23,55.23,0,0,0,259.59,732.1Z" transform="translate(-243.29 -570.36)"/><path class="cls-16" d="M259.59,731.23a55.34,55.34,0,0,0,94.47-39H243.38A55.21,55.21,0,0,0,259.59,731.23Z" transform="translate(-243.29 -570.36)"/><path class="cls-17" d="M259.59,730.37a55.34,55.34,0,0,0,94.47-39H243.38A55.23,55.23,0,0,0,259.59,730.37Z" transform="translate(-243.29 -570.36)"/><path class="cls-18" d="M259.59,729.5a55.34,55.34,0,0,0,94.47-39H243.38A55.21,55.21,0,0,0,259.59,729.5Z" transform="translate(-243.29 -570.36)"/><path class="cls-19" d="M259.59,728.64a55.34,55.34,0,0,0,94.47-39H243.38A55.23,55.23,0,0,0,259.59,728.64Z" transform="translate(-243.29 -570.36)"/><path class="cls-20" d="M259.59,727.77a55.34,55.34,0,0,0,94.47-39H243.38A55.22,55.22,0,0,0,259.59,727.77Z" transform="translate(-243.29 -570.36)"/><path class="cls-21" d="M259.59,726.9a55.34,55.34,0,0,0,94.47-39H243.38A55.21,55.21,0,0,0,259.59,726.9Z" transform="translate(-243.29 -570.36)"/><path class="cls-22" d="M259.59,726a55.34,55.34,0,0,0,94.47-39H243.38A55.23,55.23,0,0,0,259.59,726Z" transform="translate(-243.29 -570.36)"/><path class="cls-23" d="M259.59,725.17a55.34,55.34,0,0,0,94.47-39H243.38A55.21,55.21,0,0,0,259.59,725.17Z" transform="translate(-243.29 -570.36)"/><path class="cls-24" d="M259.59,724.31a55.34,55.34,0,0,0,94.47-39H243.38A55.23,55.23,0,0,0,259.59,724.31Z" transform="translate(-243.29 -570.36)"/><path class="cls-25" d="M259.59,723.44a55.34,55.34,0,0,0,94.47-39H243.38A55.22,55.22,0,0,0,259.59,723.44Z" transform="translate(-243.29 -570.36)"/><path class="cls-26" d="M259.59,722.57a55.33,55.33,0,0,0,94.47-39H243.38A55.19,55.19,0,0,0,259.59,722.57Z" transform="translate(-243.29 -570.36)"/><path class="cls-27" d="M259.59,721.71a55.34,55.34,0,0,0,94.47-39H243.38A55.23,55.23,0,0,0,259.59,721.71Z" transform="translate(-243.29 -570.36)"/><path class="cls-28" d="M259.59,720.84a55.34,55.34,0,0,0,94.47-39H243.38A55.21,55.21,0,0,0,259.59,720.84Z" transform="translate(-243.29 -570.36)"/><path class="cls-29" d="M259.59,720a55.34,55.34,0,0,0,94.47-39H243.38A55.23,55.23,0,0,0,259.59,720Z" transform="translate(-243.29 -570.36)"/><path class="cls-30" d="M259.59,719.11a55.34,55.34,0,0,0,94.47-39H243.38A55.21,55.21,0,0,0,259.59,719.11Z" transform="translate(-243.29 -570.36)"/><path class="cls-31" d="M259.59,718.25a55.34,55.34,0,0,0,94.47-39H243.38A55.23,55.23,0,0,0,259.59,718.25Z" transform="translate(-243.29 -570.36)"/><path class="cls-32" d="M259.59,717.38a55.34,55.34,0,0,0,94.47-39H243.38A55.22,55.22,0,0,0,259.59,717.38Z" transform="translate(-243.29 -570.36)"/><path class="cls-33" d="M259.59,716.51a55.33,55.33,0,0,0,94.47-39H243.38A55.21,55.21,0,0,0,259.59,716.51Z" transform="translate(-243.29 -570.36)"/><path class="cls-34" d="M259.59,715.65a55.34,55.34,0,0,0,94.47-39H243.38A55.23,55.23,0,0,0,259.59,715.65Z" transform="translate(-243.29 -570.36)"/><path class="cls-35" d="M259.59,714.78a55.34,55.34,0,0,0,94.47-39H243.38A55.21,55.21,0,0,0,259.59,714.78Z" transform="translate(-243.29 -570.36)"/><path class="cls-36" d="M259.59,713.92a55.34,55.34,0,0,0,94.47-39H243.38A55.23,55.23,0,0,0,259.59,713.92Z" transform="translate(-243.29 -570.36)"/><path class="cls-37" d="M259.59,713.05a55.34,55.34,0,0,0,94.47-39H243.38A55.21,55.21,0,0,0,259.59,713.05Z" transform="translate(-243.29 -570.36)"/><path class="cls-38" d="M259.59,712.19a55.34,55.34,0,0,0,94.47-39H243.38A55.23,55.23,0,0,0,259.59,712.19Z" transform="translate(-243.29 -570.36)"/><path class="cls-39" d="M259.59,711.32a55.34,55.34,0,0,0,94.47-39H243.38A55.22,55.22,0,0,0,259.59,711.32Z" transform="translate(-243.29 -570.36)"/><path class="cls-40" d="M259.59,710.45a55.34,55.34,0,0,0,94.47-39H243.38A55.21,55.21,0,0,0,259.59,710.45Z" transform="translate(-243.29 -570.36)"/><path class="cls-41" d="M259.59,709.59a55.34,55.34,0,0,0,94.47-39H243.38A55.23,55.23,0,0,0,259.59,709.59Z" transform="translate(-243.29 -570.36)"/><path class="cls-42" d="M259.59,708.72a55.34,55.34,0,0,0,94.47-39H243.38A55.21,55.21,0,0,0,259.59,708.72Z" transform="translate(-243.29 -570.36)"/><path class="cls-43" d="M259.59,707.86a55.34,55.34,0,0,0,94.47-39H243.38A55.23,55.23,0,0,0,259.59,707.86Z" transform="translate(-243.29 -570.36)"/><path class="cls-44" d="M259.59,707a55.34,55.34,0,0,0,94.47-39H243.38A55.22,55.22,0,0,0,259.59,707Z" transform="translate(-243.29 -570.36)"/><path class="cls-45" d="M259.59,706.12a55.33,55.33,0,0,0,94.47-39H243.38A55.19,55.19,0,0,0,259.59,706.12Z" transform="translate(-243.29 -570.36)"/><path class="cls-46" d="M259.59,705.26a55.34,55.34,0,0,0,94.47-39H243.38A55.23,55.23,0,0,0,259.59,705.26Z" transform="translate(-243.29 -570.36)"/><path class="cls-47" d="M259.59,704.39a55.34,55.34,0,0,0,94.47-39H243.38A55.21,55.21,0,0,0,259.59,704.39Z" transform="translate(-243.29 -570.36)"/><path class="cls-48" d="M259.59,703.53a55.34,55.34,0,0,0,94.47-39H243.38A55.23,55.23,0,0,0,259.59,703.53Z" transform="translate(-243.29 -570.36)"/><path class="cls-49" d="M259.59,702.66a55.34,55.34,0,0,0,94.47-39H243.38A55.21,55.21,0,0,0,259.59,702.66Z" transform="translate(-243.29 -570.36)"/><path class="cls-50" d="M259.59,701.8a55.34,55.34,0,0,0,94.47-39H243.38A55.23,55.23,0,0,0,259.59,701.8Z" transform="translate(-243.29 -570.36)"/><path class="cls-51" d="M259.59,700.93a55.34,55.34,0,0,0,94.47-39H243.38A55.22,55.22,0,0,0,259.59,700.93Z" transform="translate(-243.29 -570.36)"/><path class="cls-52" d="M259.59,700.06a55.33,55.33,0,0,0,94.47-39H243.38A55.21,55.21,0,0,0,259.59,700.06Z" transform="translate(-243.29 -570.36)"/><path class="cls-53" d="M259.59,699.2a55.34,55.34,0,0,0,94.47-39H243.38A55.23,55.23,0,0,0,259.59,699.2Z" transform="translate(-243.29 -570.36)"/><path class="cls-54" d="M259.59,698.33a55.34,55.34,0,0,0,94.47-39H243.38A55.21,55.21,0,0,0,259.59,698.33Z" transform="translate(-243.29 -570.36)"/><path class="cls-55" d="M259.59,697.47a55.34,55.34,0,0,0,94.47-39H243.38A55.23,55.23,0,0,0,259.59,697.47Z" transform="translate(-243.29 -570.36)"/><path class="cls-56" d="M259.59,696.6a55.34,55.34,0,0,0,94.47-39H243.38A55.21,55.21,0,0,0,259.59,696.6Z" transform="translate(-243.29 -570.36)"/><path class="cls-57" d="M259.59,695.74a55.34,55.34,0,0,0,94.47-39H243.38A55.23,55.23,0,0,0,259.59,695.74Z" transform="translate(-243.29 -570.36)"/><path class="cls-58" d="M259.59,694.87a55.34,55.34,0,0,0,94.47-39H243.38A55.22,55.22,0,0,0,259.59,694.87Z" transform="translate(-243.29 -570.36)"/><path class="cls-59" d="M259.59,694a55.34,55.34,0,0,0,94.47-39H243.38A55.21,55.21,0,0,0,259.59,694Z" transform="translate(-243.29 -570.36)"/><path class="cls-60" d="M259.59,693.14a55.34,55.34,0,0,0,94.47-39H243.38A55.23,55.23,0,0,0,259.59,693.14Z" transform="translate(-243.29 -570.36)"/><path class="cls-61" d="M259.59,692.27a55.34,55.34,0,0,0,94.47-39H243.38A55.21,55.21,0,0,0,259.59,692.27Z" transform="translate(-243.29 -570.36)"/><path class="cls-62" d="M259.59,691.41a55.34,55.34,0,0,0,94.47-39H243.38A55.23,55.23,0,0,0,259.59,691.41Z" transform="translate(-243.29 -570.36)"/><path class="cls-63" d="M259.59,690.54a55.34,55.34,0,0,0,94.47-39H243.38A55.22,55.22,0,0,0,259.59,690.54Z" transform="translate(-243.29 -570.36)"/><path class="cls-64" d="M259.59,689.67a55.33,55.33,0,0,0,94.47-39H243.38A55.19,55.19,0,0,0,259.59,689.67Z" transform="translate(-243.29 -570.36)"/><path class="cls-65" d="M259.59,688.81a55.34,55.34,0,0,0,94.47-39H243.38A55.23,55.23,0,0,0,259.59,688.81Z" transform="translate(-243.29 -570.36)"/><path class="cls-66" d="M259.59,687.94a55.34,55.34,0,0,0,94.47-39H243.38A55.21,55.21,0,0,0,259.59,687.94Z" transform="translate(-243.29 -570.36)"/><path class="cls-67" d="M259.59,687.08a55.34,55.34,0,0,0,94.47-39H243.38A55.23,55.23,0,0,0,259.59,687.08Z" transform="translate(-243.29 -570.36)"/><path class="cls-68" d="M259.59,686.21a55.34,55.34,0,0,0,94.47-39H243.38A55.21,55.21,0,0,0,259.59,686.21Z" transform="translate(-243.29 -570.36)"/><path class="cls-69" d="M259.59,685.35a55.34,55.34,0,0,0,94.47-39H243.38A55.23,55.23,0,0,0,259.59,685.35Z" transform="translate(-243.29 -570.36)"/><path class="cls-70" d="M259.59,684.48a55.34,55.34,0,0,0,94.47-39H243.38A55.22,55.22,0,0,0,259.59,684.48Z" transform="translate(-243.29 -570.36)"/><path class="cls-71" d="M259.59,683.61a55.33,55.33,0,0,0,94.47-39H243.38A55.21,55.21,0,0,0,259.59,683.61Z" transform="translate(-243.29 -570.36)"/><path class="cls-72" d="M259.59,682.75a55.34,55.34,0,0,0,94.47-39H243.38A55.23,55.23,0,0,0,259.59,682.75Z" transform="translate(-243.29 -570.36)"/><path class="cls-73" d="M259.59,681.88a55.34,55.34,0,0,0,94.47-39H243.38A55.21,55.21,0,0,0,259.59,681.88Z" transform="translate(-243.29 -570.36)"/><path class="cls-74" d="M259.59,681a55.34,55.34,0,0,0,94.47-39H243.38A55.23,55.23,0,0,0,259.59,681Z" transform="translate(-243.29 -570.36)"/><path class="cls-75" d="M259.59,680.15a55.34,55.34,0,0,0,94.47-39H243.38A55.21,55.21,0,0,0,259.59,680.15Z" transform="translate(-243.29 -570.36)"/><path class="cls-76" d="M259.59,679.29a55.34,55.34,0,0,0,94.47-39H243.38A55.23,55.23,0,0,0,259.59,679.29Z" transform="translate(-243.29 -570.36)"/><path class="cls-77" d="M259.59,678.42a55.34,55.34,0,0,0,94.47-39H243.38A55.22,55.22,0,0,0,259.59,678.42Z" transform="translate(-243.29 -570.36)"/><path class="cls-78" d="M259.59,677.55a55.34,55.34,0,0,0,94.47-39H243.38A55.21,55.21,0,0,0,259.59,677.55Z" transform="translate(-243.29 -570.36)"/><path class="cls-79" d="M259.59,676.69a55.34,55.34,0,0,0,94.47-39H243.38A55.23,55.23,0,0,0,259.59,676.69Z" transform="translate(-243.29 -570.36)"/><path class="cls-80" d="M259.59,675.82a55.34,55.34,0,0,0,94.47-39H243.38A55.21,55.21,0,0,0,259.59,675.82Z" transform="translate(-243.29 -570.36)"/><path class="cls-81" d="M259.59,675a55.34,55.34,0,0,0,94.47-39H243.38A55.23,55.23,0,0,0,259.59,675Z" transform="translate(-243.29 -570.36)"/><path class="cls-82" d="M259.59,674.09a55.34,55.34,0,0,0,94.47-39H243.38A55.22,55.22,0,0,0,259.59,674.09Z" transform="translate(-243.29 -570.36)"/><path class="cls-83" d="M259.59,673.22a55.33,55.33,0,0,0,94.47-39H243.38A55.19,55.19,0,0,0,259.59,673.22Z" transform="translate(-243.29 -570.36)"/><path class="cls-84" d="M259.59,672.36a55.34,55.34,0,0,0,94.47-39H243.38A55.23,55.23,0,0,0,259.59,672.36Z" transform="translate(-243.29 -570.36)"/></g><path class="cls-85" d="M243.29,604.69a6.36,6.36,0,0,1,2.86-5L295.86,571a6.33,6.33,0,0,1,5.72,0l49.71,28.7a6.33,6.33,0,0,1,2.86,5v57.4a6.33,6.33,0,0,1-2.86,5l-49.71,28.7a6.4,6.4,0,0,1-5.72,0l-49.71-28.7a6.36,6.36,0,0,1-2.86-5Z" transform="translate(-243.29 -570.36)"/><g id="tablet"><path class="cls-86" d="M302.84,660.28h-8.77a.59.59,0,0,1,0-1.17h8.77a.59.59,0,0,1,0,1.17Z" transform="translate(-243.29 -570.36)"/><path class="cls-86" d="M302.84,610.2h-8.77a.59.59,0,0,1,0-1.17h8.77a.59.59,0,0,1,0,1.17Z" transform="translate(-243.29 -570.36)"/><path class="cls-86" d="M280.06,610.31a.68.68,0,0,1-.7-.7.75.75,0,0,1,.19-.49.73.73,0,0,1,1,0,.71.71,0,0,1,.2.49.76.76,0,0,1-.2.51A.78.78,0,0,1,280.06,610.31Z" transform="translate(-243.29 -570.36)"/><path class="cls-86" d="M320.74,657.15h-44a.52.52,0,0,1-.52-.53V612.88a.52.52,0,0,1,.52-.53h44a.53.53,0,0,1,.53.53v43.74A.53.53,0,0,1,320.74,657.15Zm-43.51-1.06h43V613.41h-43Z" transform="translate(-243.29 -570.36)"/><path class="cls-86" d="M280.33,652.32a.59.59,0,0,1-.23-.05.58.58,0,0,1-.31-.77l6.28-14.71a.59.59,0,0,1,.47-.36.59.59,0,0,1,.54.24l5.19,7.22,9.15-4.09a.61.61,0,0,1,.4,0L306,641l10.59-19a.59.59,0,1,1,1,.58L306.81,642a.59.59,0,0,1-.67.28L301.7,641l-9.39,4.19a.57.57,0,0,1-.71-.19l-4.86-6.76L280.86,652A.58.58,0,0,1,280.33,652.32Z" transform="translate(-243.29 -570.36)"/><path class="cls-86" d="M317.12,652.32H280.33a.59.59,0,0,1-.59-.59.58.58,0,0,1,.59-.58h36.79a.59.59,0,0,1,.59.58A.6.6,0,0,1,317.12,652.32Z" transform="translate(-243.29 -570.36)"/><path class="cls-86" d="M317.23,663.42h-37a4.1,4.1,0,0,1-4.09-4.1V609.8a4.1,4.1,0,0,1,4.09-4.09h37a4.1,4.1,0,0,1,4.1,4.09v49.52A4.11,4.11,0,0,1,317.23,663.42Zm-37-56.54a2.92,2.92,0,0,0-2.92,2.92v49.52a2.93,2.93,0,0,0,2.92,2.93h37a2.93,2.93,0,0,0,2.93-2.93V609.8a2.93,2.93,0,0,0-2.93-2.92Z" transform="translate(-243.29 -570.36)"/></g></g></g></svg>