<svg id="Layer_1" data-name="Layer 1" xmlns="http://www.w3.org/2000/svg" viewBox="0 0 276 276"><defs><style>.cls-1,.cls-2{fill:none;}.cls-2{stroke:#f5f5f5;stroke-miterlimit:10;}.cls-3{fill:#f5f5f5;}</style></defs><rect class="cls-1" width="276" height="276"/><path class="cls-2" d="M593.94,501.59a60.65,60.65,0,0,1-84.54,84.22" transform="translate(-402 -402)"/><path class="cls-2" d="M492,567.19a60.66,60.66,0,0,1,83.72-82.9" transform="translate(-402 -402)"/><path class="cls-3" d="M542.44,522.76l-5.78-11-5-9.55a10.43,10.43,0,0,0-1.84-.7,9.93,9.93,0,0,0-2.27-.27,9,9,0,0,0-1.28.1,9.05,9.05,0,0,0-2.61.76l-5.2,9.83-11.07,21h7.08L522.29,518l5.16-9.87,5.26,10,4.87,9.23Z" transform="translate(-402 -402)"/><rect class="cls-3" x="153.02" y="141.67" width="5.9" height="22.29"/><path class="cls-3" d="M557.4,539.4h16.72a8.81,8.81,0,0,1,1.14,1V566h5.13v-27a8.83,8.83,0,0,0-4.31-4.64h-13.6Z" transform="translate(-402 -402)"/><path class="cls-3" d="M536.49,559.31V566h5.07V554.24l-4.67,4.67Z" transform="translate(-402 -402)"/><line class="cls-2" x1="88.61" y1="184.59" x2="129.61" y2="143.59"/><line class="cls-2" x1="149.61" y1="124.16" x2="195.18" y2="78.59"/><path class="cls-3" d="M481.2,628.49h-.72l-1.08-2.09h-5.52l-1.08,2.09h-.72l4.56-8.85Zm-7-2.73h4.86L476.64,621Z" transform="translate(-402 -402)"/><path class="cls-3" d="M487.46,620.12a3,3,0,0,1,0,6.08h-2.79v2.29H484v-8.37Zm0,5.43a2.4,2.4,0,0,0,1.69-4.09,2.33,2.33,0,0,0-1.69-.7h-2.79v4.79Z" transform="translate(-402 -402)"/><path class="cls-3" d="M494.55,627.49a4.48,4.48,0,1,1,3.19,1.33A4.33,4.33,0,0,1,494.55,627.49Zm.46-5.91a3.86,3.86,0,1,0,6.59,2.73,3.86,3.86,0,0,0-6.59-2.73Z" transform="translate(-402 -402)"/><path class="cls-3" d="M511.16,620.12v.64h-3.08v7.73h-.64v-7.73h-3.07v-.64Z" transform="translate(-402 -402)"/><path class="cls-3" d="M521.41,620.12v8.37h-.64v-3.11h-6v3.11h-.64v-8.37h.64v4.63h6v-4.63Z" transform="translate(-402 -402)"/><path class="cls-3" d="M525.32,624.73v3.11h6v.65h-6.64v-8.38h6.64v.64h-6v3.34h5.59v.64Z" transform="translate(-402 -402)"/><path class="cls-3" d="M535.52,627.49a4.48,4.48,0,1,1,3.19,1.33A4.33,4.33,0,0,1,535.52,627.49Zm.46-5.91a3.86,3.86,0,1,0,5.46,0,3.86,3.86,0,0,0-5.46,0Z" transform="translate(-402 -402)"/><path class="cls-3" d="M546.9,627.86a3.14,3.14,0,0,1-.95-2.3h.64a2.61,2.61,0,0,0,2.62,2.61,2.5,2.5,0,0,0,1.84-.76,2.53,2.53,0,0,0,.77-1.85,2.22,2.22,0,0,0-.78-1.75,4.44,4.44,0,0,0-.8-.53l-.45-.22-.45-.21a6.54,6.54,0,0,1-1.26-.67,1.26,1.26,0,0,1-.56-1,1.32,1.32,0,0,1,.43-1,1.5,1.5,0,0,1,1.06-.42,1.6,1.6,0,0,1,1.08.36,1.27,1.27,0,0,1,.22.25.41.41,0,0,1,.05.09,0,0,0,0,1,0,0h0l-.59.25h0l0,0a.49.49,0,0,0-.13-.12,1,1,0,0,0-.61-.16.88.88,0,0,0-.58.21.71.71,0,0,0-.27.57.74.74,0,0,0,.38.56,7.43,7.43,0,0,0,1.06.54l.23.1.24.11c.18.08.34.17.48.24a4.4,4.4,0,0,1,.94.64,2.81,2.81,0,0,1,1,2.2,3.26,3.26,0,0,1-3.25,3.26A3.15,3.15,0,0,1,546.9,627.86Z" transform="translate(-402 -402)"/><path class="cls-3" d="M555.47,620.12h.64v8.37h-.64Z" transform="translate(-402 -402)"/><path class="cls-3" d="M560.07,627.86a3.11,3.11,0,0,1-1-2.3h.65a2.61,2.61,0,1,0,5.22,0,2.22,2.22,0,0,0-.78-1.75,4.11,4.11,0,0,0-.8-.53l-.44-.22-.46-.21a7.25,7.25,0,0,1-1.26-.67,1.26,1.26,0,0,1-.56-1,1.33,1.33,0,0,1,.44-1,1.46,1.46,0,0,1,1-.42,1.57,1.57,0,0,1,1.08.36,1.27,1.27,0,0,1,.22.25.41.41,0,0,1,0,.09l0,0h0l-.59.25h0l0,0a.34.34,0,0,0-.12-.12,1.06,1.06,0,0,0-.62-.16.86.86,0,0,0-.57.21.69.69,0,0,0-.28.57.73.73,0,0,0,.39.56,6.65,6.65,0,0,0,1,.54l.23.1.24.11.49.24a4.58,4.58,0,0,1,.93.64,2.82,2.82,0,0,1,1,2.2,3.25,3.25,0,0,1-5.56,2.3Z" transform="translate(-402 -402)"/><path class="cls-3" d="M580.75,628.5h-.64v-6.12l-3.54,6.35L573,622.38v6.12h-.65v-8.69l4.18,7.65,4.18-7.65Z" transform="translate(-402 -402)"/><path class="cls-3" d="M584,620.12h.64v8.37H584Z" transform="translate(-402 -402)"/><path class="cls-3" d="M594.28,627.07v-7h.64v8.67l-6.35-7.27v7h-.64v-8.7Z" transform="translate(-402 -402)"/><path class="cls-3" d="M601.76,620.12a4.19,4.19,0,0,1,0,8.37h-3.57v-8.37Zm0,7.73a3.55,3.55,0,0,0,0-7.09h-2.93v7.09Z" transform="translate(-402 -402)"/></svg>